<?xml version="1.0" standalone="no"?>
<!DOCTYPE svg PUBLIC "-//W3C//DTD SVG 1.1//EN" "http://www.w3.org/Graphics/SVG/1.1/DTD/svg11.dtd" >
<svg xmlns="http://www.w3.org/2000/svg">
<metadata>Generated by IcoMoon</metadata>
<defs>
<font id="npmap-symbols" horiz-adv-x="1024">
<font-face units-per-em="1024" ascent="960" descent="-64" />
<missing-glyph horiz-adv-x="1024" />
<glyph unicode="&#x20;" horiz-adv-x="512" d="" />
<glyph unicode="&#xe900;" glyph-name="aed-black-14" d="M753.371 923.429c-95.086 0-182.857-51.2-234.057-131.657-51.2 80.457-146.286 138.971-248.686 138.971-146.286 0-270.629-124.343-270.629-277.943v0c0-117.029 51.2-248.686 190.171-416.914 102.4-117.029 212.114-212.114 321.829-277.943 109.714 65.829 219.429 160.914 321.829 277.943 138.971 160.914 190.171 292.571 190.171 409.6 0 153.6-117.029 277.943-270.629 277.943zM292.571 199.314l146.286 292.571h-212.114l504.686 365.714-146.286-292.571h219.429l-512-365.714z" />
<glyph unicode="&#xe901;" glyph-name="aed-black-22" d="M754.036 922.764c-97.745 0-181.527-51.2-232.727-130.327-46.545 83.782-144.291 134.982-246.691 134.982-148.945 4.655-274.618-121.018-274.618-274.618v0c0-116.364 51.2-251.345 195.491-414.255 97.745-116.364 214.109-209.455 321.164-274.618 107.055 65.164 218.764 158.255 321.164 274.618 139.636 158.255 186.182 293.236 186.182 404.945 0 153.6-116.364 279.273-269.964 279.273zM330.473 178.036l139.636 288.582h-204.8l446.836 372.364-139.636-279.273h204.8l-446.836-381.673z" />
<glyph unicode="&#xe902;" glyph-name="aed-black-30" d="M754.347 922.453c-98.987 0-184.32-51.2-232.107-129.707-47.787 81.92-143.36 136.533-245.76 136.533-150.187 0-276.48-122.88-276.48-273.067v0c0-112.64 51.2-249.173 194.56-413.013 98.987-116.053 215.040-208.213 320.853-276.48 109.227 68.267 221.867 160.427 320.853 276.48 136.533 160.427 187.733 293.547 187.733 406.187 0 150.187-116.053 273.067-269.653 273.067zM331.093 168.107l139.947 283.307h-204.8l443.733 375.467-136.533-273.067h204.8l-447.147-385.707z" />
<glyph unicode="&#xe903;" glyph-name="aed-white-14" d="M753.371 923.429c-95.086 0-182.857-51.2-234.057-131.657-51.2 80.457-146.286 138.971-248.686 138.971-146.286 0-270.629-124.343-270.629-277.943v0c0-117.029 51.2-248.686 190.171-416.914 102.4-117.029 212.114-212.114 321.829-277.943 109.714 65.829 219.429 160.914 321.829 277.943 138.971 160.914 190.171 292.571 190.171 409.6 0 153.6-117.029 277.943-270.629 277.943zM292.571 199.314l146.286 292.571h-212.114l504.686 365.714-146.286-292.571h219.429l-512-365.714z" />
<glyph unicode="&#xe904;" glyph-name="aed-white-22" d="M754.036 922.764c-97.745 0-181.527-51.2-232.727-130.327-46.545 83.782-144.291 134.982-246.691 134.982-148.945 4.655-274.618-121.018-274.618-274.618v0c0-116.364 51.2-251.345 195.491-414.255 97.745-116.364 214.109-209.455 321.164-274.618 107.055 65.164 218.764 158.255 321.164 274.618 139.636 158.255 186.182 293.236 186.182 404.945 0 153.6-116.364 279.273-269.964 279.273zM330.473 178.036l139.636 288.582h-204.8l446.836 372.364-139.636-279.273h204.8l-446.836-381.673z" />
<glyph unicode="&#xe905;" glyph-name="aed-white-30" d="M754.347 922.453c-98.987 0-184.32-51.2-232.107-129.707-47.787 81.92-143.36 136.533-245.76 136.533-150.187 0-276.48-122.88-276.48-273.067v0c0-112.64 51.2-249.173 194.56-413.013 98.987-116.053 215.040-208.213 320.853-276.48 109.227 68.267 221.867 160.427 320.853 276.48 136.533 160.427 187.733 293.547 187.733 406.187 0 150.187-116.053 273.067-269.653 273.067zM331.093 168.107l139.947 283.307h-204.8l443.733 375.467-136.533-273.067h204.8l-447.147-385.707z" />
<glyph unicode="&#xe906;" glyph-name="airfield-black-14" d="M512 1.829l-36.571 65.829h-146.286c-7.314 14.629 7.314 36.571 7.314 36.571 29.257 36.571 124.343 80.457 124.343 80.457l-21.943 373.029-380.343 21.943c-65.829 7.314-58.514 58.514-58.514 58.514 0 36.571 65.829 43.886 65.829 43.886l373.029 43.886 29.257 109.714h-51.2v14.629h73.143l21.943 36.571 21.943-36.571h73.143v-14.629h-51.2l29.257-109.714 373.029-43.886c0 0 65.829-14.629 65.829-43.886 0 0 7.314-43.886-58.514-51.2l-380.343-29.257-29.257-380.343c0 0 95.086-43.886 124.343-80.457 0 0 14.629-21.943 7.314-36.571h-146.286l-29.257-58.514z" />
<glyph unicode="&#xe907;" glyph-name="airfield-black-22" d="M512 24.436l-37.236 65.164h-144.291c-4.655 9.309 4.655 37.236 4.655 37.236 27.927 37.236 125.673 79.127 125.673 79.127l-23.273 381.673-377.018 18.618c-65.164 9.309-60.509 55.855-60.509 55.855 0 37.236 65.164 46.545 65.164 46.545l377.018 41.891 23.273 111.709h-51.2v18.618h69.818l27.927 32.582 23.273-32.582h69.818v-13.964h-46.545l27.927-111.709 377.018-41.891c0 0 65.164-9.309 65.164-46.545 0 0 4.655-46.545-60.509-55.855l-381.673-23.273-27.927-381.673c0 0 97.745-41.891 125.673-79.127 0 0 9.309-23.273 4.655-37.236h-144.291l-32.582-65.164z" />
<glyph unicode="&#xe908;" glyph-name="airfield-black-30" d="M512 4.267l-37.547 64.853h-143.36c-3.413 13.653 6.827 37.547 6.827 37.547 30.72 37.547 126.293 78.507 126.293 78.507l-30.72 378.88-375.467 23.893c-61.44 6.827-58.027 51.2-58.027 51.2 0 37.547 64.853 47.787 64.853 47.787l375.467 40.96 27.307 112.64h-51.2v17.067h68.267l30.72 34.133 23.893-34.133h68.267v-17.067h-51.2l27.307-112.64 375.467-40.96c0 0 64.853-10.24 64.853-47.787 0 0 3.413-44.373-58.027-54.613l-378.88-23.893-30.72-378.88c0 0 95.573-40.96 126.293-78.507 0 0 10.24-23.893 6.827-37.547h-143.36l-34.133-61.44z" />
<glyph unicode="&#xe909;" glyph-name="airfield-white-14" d="M512 1.829l-36.571 65.829h-146.286c-7.314 14.629 7.314 36.571 7.314 36.571 29.257 36.571 124.343 80.457 124.343 80.457l-21.943 373.029-380.343 21.943c-65.829 7.314-58.514 58.514-58.514 58.514 0 36.571 65.829 43.886 65.829 43.886l373.029 43.886 29.257 109.714h-51.2v14.629h73.143l21.943 36.571 21.943-36.571h73.143v-14.629h-51.2l29.257-109.714 373.029-43.886c0 0 65.829-14.629 65.829-43.886 0 0 7.314-43.886-58.514-51.2l-380.343-29.257-29.257-380.343c0 0 95.086-43.886 124.343-80.457 0 0 14.629-21.943 7.314-36.571h-146.286l-29.257-58.514z" />
<glyph unicode="&#xe90a;" glyph-name="airfield-white-22" d="M512 24.436l-37.236 65.164h-144.291c-4.655 9.309 4.655 37.236 4.655 37.236 27.927 37.236 125.673 79.127 125.673 79.127l-23.273 381.673-377.018 18.618c-65.164 9.309-60.509 55.855-60.509 55.855 0 37.236 65.164 46.545 65.164 46.545l377.018 41.891 23.273 111.709h-51.2v18.618h69.818l27.927 32.582 23.273-32.582h69.818v-13.964h-46.545l27.927-111.709 377.018-41.891c0 0 65.164-9.309 65.164-46.545 0 0 4.655-46.545-60.509-55.855l-381.673-23.273-27.927-381.673c0 0 97.745-41.891 125.673-79.127 0 0 9.309-23.273 4.655-37.236h-144.291l-32.582-65.164z" />
<glyph unicode="&#xe90b;" glyph-name="airfield-white-30" d="M512 4.267l-37.547 64.853h-143.36c-3.413 13.653 6.827 37.547 6.827 37.547 30.72 37.547 126.293 78.507 126.293 78.507l-30.72 378.88-375.467 23.893c-61.44 6.827-58.027 51.2-58.027 51.2 0 37.547 64.853 47.787 64.853 47.787l375.467 40.96 27.307 112.64h-51.2v17.067h68.267l30.72 34.133 23.893-34.133h68.267v-17.067h-51.2l27.307-112.64 375.467-40.96c0 0 64.853-10.24 64.853-47.787 0 0 3.413-44.373-58.027-54.613l-378.88-23.893-30.72-378.88c0 0 95.573-40.96 126.293-78.507 0 0 10.24-23.893 6.827-37.547h-143.36l-34.133-61.44z" />
<glyph unicode="&#xe90c;" glyph-name="airport-black-14" d="M292.571-64l146.286 146.286v292.571l-365.714-146.286h-73.143v73.143l438.857 292.571v292.571l73.143 73.143 73.143-73.143v-292.571l438.857-292.571v-73.143h-73.143l-365.714 146.286v-292.571l146.286-146.286z" />
<glyph unicode="&#xe90d;" glyph-name="airport-black-22" d="M465.455 913.455l46.545 46.545 46.545-46.545v-325.818l465.455-279.273v-93.091h-46.545l-418.909 139.636v-279.273l93.091-93.091v-46.545h-46.545l-46.545 46.545h-93.091l-41.891-46.545h-51.2v46.545l93.091 93.091v279.273l-418.909-139.636h-46.545v93.091l465.455 279.273z" />
<glyph unicode="&#xe90e;" glyph-name="airport-black-30" d="M546.133 4.267h-68.267l-136.533-68.267v102.4l102.4 68.267v238.933h-34.133l-375.467-136.533h-34.133v102.4l443.733 273.067v307.2l34.133 68.267h68.267l34.133-68.267v-307.2l443.733-273.067v-102.4h-34.133l-375.467 136.533h-34.133v-238.933l102.4-68.267v-102.4z" />
<glyph unicode="&#xe90f;" glyph-name="airport-white-14" d="M292.571-64l146.286 146.286v292.571l-365.714-146.286h-73.143v73.143l438.857 292.571v292.571l73.143 73.143 73.143-73.143v-292.571l438.857-292.571v-73.143h-73.143l-365.714 146.286v-292.571l146.286-146.286z" />
<glyph unicode="&#xe910;" glyph-name="airport-white-22" d="M465.455 913.455l46.545 46.545 46.545-46.545v-325.818l465.455-279.273v-93.091h-46.545l-418.909 139.636v-279.273l93.091-93.091v-46.545h-46.545l-46.545 46.545h-93.091l-41.891-46.545h-51.2v46.545l93.091 93.091v279.273l-418.909-139.636h-46.545v93.091l465.455 279.273z" />
<glyph unicode="&#xe911;" glyph-name="airport-white-30" d="M546.133 4.267h-68.267l-136.533-68.267v102.4l102.4 68.267v238.933h-34.133l-375.467-136.533h-34.133v102.4l443.733 273.067v307.2l34.133 68.267h68.267l34.133-68.267v-307.2l443.733-273.067v-102.4h-34.133l-375.467 136.533h-34.133v-238.933l102.4-68.267v-102.4z" />
<glyph unicode="&#xe912;" glyph-name="alcohol-black-14" d="M877.714 682.057c65.829-14.629 146.286-73.143 146.286-146.286v-533.943c0-14.629-58.514-65.829-73.143-65.829h-292.571c-14.629 0-73.143 51.2-73.143 65.829v519.314c0 73.143 80.457 146.286 146.286 160.914v277.943h146.286v-277.943zM424.229 9.143l-131.657 36.571v321.829l219.429 263.314h-512l219.429-263.314v-329.143l-138.971-29.257c0 0-21.943-43.886-21.943-73.143h380.343c7.314 29.257-14.629 73.143-14.629 73.143z" />
<glyph unicode="&#xe913;" glyph-name="alcohol-black-22" d="M884.364 680.727c65.164-13.964 139.636-74.473 139.636-144.291v-507.345c0-18.618-27.927-46.545-46.545-46.545h-279.273c-18.618 0-46.545 27.927-46.545 46.545v507.345c0 69.818 74.473 130.327 139.636 144.291v232.727h93.091v-232.727zM484.073 15.127l-172.218 32.582v321.164l256 260.655h-567.855l256-260.655v-321.164l-172.218-32.582c0 0-18.618-4.655-18.618-32.582h442.182c-4.655 27.927-23.273 32.582-23.273 32.582z" />
<glyph unicode="&#xe914;" glyph-name="alcohol-black-30" d="M921.6 686.933c64.853-17.067 102.4-78.507 102.4-150.187v-532.48c0-17.067-17.067-34.133-34.133-34.133h-273.067c-17.067 0-34.133 17.067-34.133 34.133v532.48c0 68.267 37.547 133.12 102.4 150.187v238.933h136.533v-238.933zM512 4.267l-170.667 34.133v341.333l273.067 273.067h-614.4l273.067-273.067v-341.333l-170.667-34.133c0 0-34.133-3.413-34.133-34.133h477.867c0 30.72-34.133 34.133-34.133 34.133z" />
<glyph unicode="&#xe915;" glyph-name="alcohol-white-14" d="M877.714 682.057c65.829-14.629 146.286-73.143 146.286-146.286v-533.943c0-14.629-58.514-65.829-73.143-65.829h-292.571c-14.629 0-73.143 51.2-73.143 65.829v519.314c0 73.143 80.457 146.286 146.286 160.914v277.943h146.286v-277.943zM424.229 9.143l-131.657 36.571v321.829l219.429 263.314h-512l219.429-263.314v-329.143l-138.971-29.257c0 0-21.943-43.886-21.943-73.143h380.343c7.314 29.257-14.629 73.143-14.629 73.143z" />
<glyph unicode="&#xe916;" glyph-name="alcohol-white-22" d="M884.364 680.727c65.164-13.964 139.636-74.473 139.636-144.291v-507.345c0-18.618-27.927-46.545-46.545-46.545h-279.273c-18.618 0-46.545 27.927-46.545 46.545v507.345c0 69.818 74.473 130.327 139.636 144.291v232.727h93.091v-232.727zM484.073 15.127l-172.218 32.582v321.164l256 260.655h-567.855l256-260.655v-321.164l-172.218-32.582c0 0-18.618-4.655-18.618-32.582h442.182c-4.655 27.927-23.273 32.582-23.273 32.582z" />
<glyph unicode="&#xe917;" glyph-name="alcohol-white-30" d="M921.6 686.933c64.853-17.067 102.4-78.507 102.4-150.187v-532.48c0-17.067-17.067-34.133-34.133-34.133h-273.067c-17.067 0-34.133 17.067-34.133 34.133v532.48c0 68.267 37.547 133.12 102.4 150.187v238.933h136.533v-238.933zM512 4.267l-170.667 34.133v341.333l273.067 273.067h-614.4l273.067-273.067v-341.333l-170.667-34.133c0 0-34.133-3.413-34.133-34.133h477.867c0 30.72-34.133 34.133-34.133 34.133z" />
<glyph unicode="&#xe918;" glyph-name="all-terrain-trail-black-14" d="M877.714 630.857v146.286h-14.629c-29.257 0-131.657-36.571-131.657-73.143s102.4-73.143 131.657-73.143h14.629zM731.429 704l-58.514 109.714c-14.629 21.943-36.571 36.571-58.514 36.571h-131.657c-14.629 0-36.571-73.143-29.257-73.143h131.657c7.314 0 29.257-29.257 29.257-36.571l43.886-73.143 73.143 36.571zM943.543 528.457c14.629-7.314 29.257-21.943 29.257-36.571h-95.086c-117.029 0-292.571-102.4-292.571-226.743h-146.286c0 102.4-124.343 182.857-219.429 212.114l-168.229 58.514 29.257 43.886c7.314 14.629 29.257 21.943 43.886 21.943h14.629l373.029-65.829h14.629c14.629 0 29.257 7.314 43.886 21.943l87.771 65.829 285.257-95.086zM182.857 411.429c-102.4 0-182.857-80.457-182.857-182.857s80.457-182.857 182.857-182.857 182.857 80.457 182.857 182.857-80.457 182.857-182.857 182.857zM182.857 155.429c-36.571-7.314-65.829 21.943-73.143 58.514 0 7.314 0 7.314 0 14.629-7.314 36.571 21.943 65.829 58.514 73.143 7.314 0 7.314 0 14.629 0 36.571 7.314 65.829-21.943 73.143-58.514 0-7.314 0-7.314 0-14.629 7.314-36.571-21.943-65.829-58.514-73.143-7.314 0-7.314 0-14.629 0zM841.143 411.429c-102.4 0-182.857-80.457-182.857-182.857s80.457-182.857 182.857-182.857 182.857 80.457 182.857 182.857-80.457 182.857-182.857 182.857zM841.143 155.429c-36.571-7.314-65.829 21.943-73.143 58.514 0 7.314 0 7.314 0 14.629 0 43.886 29.257 73.143 73.143 73.143s73.143-29.257 73.143-73.143c7.314-36.571-21.943-65.829-58.514-73.143-7.314 0-7.314 0-14.629 0z" />
<glyph unicode="&#xe919;" glyph-name="all-terrain-trail-black-22" d="M809.891 629.527v130.327h-13.964c-37.236 0-65.164-27.927-65.164-65.164s27.927-65.164 65.164-65.164h13.964zM712.145 662.109l-55.855 111.709c-9.309 23.273-32.582 37.236-60.509 37.236h-130.327c-13.964 0-23.273-9.309-23.273-23.273s9.309-18.618 23.273-18.618h130.327c13.964 0 23.273-9.309 27.927-18.618l37.236-69.818 51.2-18.618zM968.145 536.436c18.618-4.655 27.927-18.618 27.927-37.236h-93.091c-125.673 0-223.418-97.745-223.418-223.418v0h-302.545c0 97.745-65.164 181.527-153.6 214.109l-172.218 55.855 27.927 41.891c9.309 13.964 27.927 23.273 46.545 23.273h13.964l377.018-116.364h13.964c18.618 0 32.582 9.309 41.891 23.273l83.782 121.018 311.855-102.4zM716.8 243.2c0 83.782 69.818 153.6 153.6 153.6s153.6-69.818 153.6-153.6-69.818-153.6-153.6-153.6v0c-83.782-4.655-153.6 65.164-153.6 153.6zM870.4 178.036c32.582 0 55.855 23.273 55.855 55.855 0 0 0 0 0 0 0 32.582-23.273 55.855-55.855 55.855s-55.855-23.273-55.855-55.855c0-27.927 23.273-55.855 55.855-55.855 0 0 0 0 0 0zM0 257.164c0 93.091 74.473 167.564 167.564 167.564s167.564-74.473 167.564-167.564-74.473-167.564-167.564-167.564-167.564 74.473-167.564 167.564c0 0 0 0 0 0zM167.564 196.655c32.582 0 60.509 27.927 60.509 60.509s-27.927 60.509-60.509 60.509v0c-32.582 0-60.509-27.927-60.509-60.509s27.927-60.509 60.509-60.509z" />
<glyph unicode="&#xe91a;" glyph-name="all-terrain-trail-black-30" d="M808.96 645.973v126.293h-10.24c-34.133 0-64.853-27.307-64.853-64.853 0-34.133 27.307-64.853 64.853-64.853 0 3.413 10.24 3.413 10.24 3.413zM713.387 673.28l-54.613 112.64c-13.653 23.893-37.547 37.547-64.853 37.547h-129.707c-10.24 0-20.48-10.24-20.48-20.48 0-13.653 10.24-20.48 20.48-20.48h129.707c10.24 0 20.48-6.827 27.307-17.067l34.133-71.68 58.027-20.48zM969.387 557.227c17.067-3.413 30.72-20.48 30.72-37.547h-95.573c-122.88 0-225.28-98.987-225.28-225.28h-307.2c0 98.987-64.853 184.32-153.6 211.627l-167.253 54.613 27.307 40.96c13.653 17.067 30.72 27.307 47.787 27.307 3.413 0 6.827 0 13.653 0l375.467-116.053c3.413 0 10.24-3.413 13.653-3.413 17.067 0 30.72 10.24 40.96 20.48l85.333 122.88 314.027-95.573zM720.213 253.44c0 85.333 68.267 153.6 153.6 153.6s153.6-68.267 153.6-153.6-68.267-153.6-153.6-153.6-153.6 68.267-153.6 153.6zM870.4 195.413c30.72 0 58.027 27.307 58.027 58.027s-23.893 58.027-58.027 58.027c-30.72 0-58.027-23.893-58.027-58.027 3.413-30.72 27.307-58.027 58.027-58.027zM0 270.507c0 92.16 75.093 167.253 167.253 167.253s167.253-75.093 167.253-167.253-75.093-167.253-167.253-167.253-167.253 75.093-167.253 167.253zM167.253 209.067c34.133 0 61.44 27.307 61.44 61.44s-27.307 61.44-61.44 61.44-61.44-27.307-61.44-61.44c0-34.133 27.307-61.44 61.44-61.44z" />
<glyph unicode="&#xe91b;" glyph-name="all-terrain-trail-white-14" d="M877.714 630.857v146.286h-14.629c-29.257 0-131.657-36.571-131.657-73.143s102.4-73.143 131.657-73.143h14.629zM731.429 704l-58.514 109.714c-14.629 21.943-36.571 36.571-58.514 36.571h-131.657c-14.629 0-36.571-73.143-29.257-73.143h131.657c7.314 0 29.257-29.257 29.257-36.571l43.886-73.143 73.143 36.571zM943.543 528.457c14.629-7.314 29.257-21.943 29.257-36.571h-95.086c-117.029 0-292.571-102.4-292.571-226.743h-146.286c0 102.4-124.343 182.857-219.429 212.114l-168.229 58.514 29.257 43.886c7.314 14.629 29.257 21.943 43.886 21.943h14.629l373.029-65.829h14.629c14.629 0 29.257 7.314 43.886 21.943l87.771 65.829 285.257-95.086zM182.857 411.429c-102.4 0-182.857-80.457-182.857-182.857s80.457-182.857 182.857-182.857 182.857 80.457 182.857 182.857-80.457 182.857-182.857 182.857zM182.857 155.429c-36.571-7.314-65.829 21.943-73.143 58.514 0 7.314 0 7.314 0 14.629-7.314 36.571 21.943 65.829 58.514 73.143 7.314 0 7.314 0 14.629 0 36.571 7.314 65.829-21.943 73.143-58.514 0-7.314 0-7.314 0-14.629 7.314-36.571-21.943-65.829-58.514-73.143-7.314 0-7.314 0-14.629 0zM841.143 411.429c-102.4 0-182.857-80.457-182.857-182.857s80.457-182.857 182.857-182.857 182.857 80.457 182.857 182.857-80.457 182.857-182.857 182.857zM841.143 155.429c-36.571-7.314-65.829 21.943-73.143 58.514 0 7.314 0 7.314 0 14.629 0 43.886 29.257 73.143 73.143 73.143s73.143-29.257 73.143-73.143c7.314-36.571-21.943-65.829-58.514-73.143-7.314 0-7.314 0-14.629 0z" />
<glyph unicode="&#xe91c;" glyph-name="all-terrain-trail-white-22" d="M809.891 629.527v130.327h-13.964c-37.236 0-65.164-27.927-65.164-65.164s27.927-65.164 65.164-65.164h13.964zM712.145 662.109l-55.855 111.709c-9.309 23.273-32.582 37.236-60.509 37.236h-130.327c-13.964 0-23.273-9.309-23.273-23.273s9.309-18.618 23.273-18.618h130.327c13.964 0 23.273-9.309 27.927-18.618l37.236-69.818 51.2-18.618zM968.145 536.436c18.618-4.655 27.927-18.618 27.927-37.236h-93.091c-125.673 0-223.418-97.745-223.418-223.418v0h-302.545c0 97.745-65.164 181.527-153.6 214.109l-172.218 55.855 27.927 41.891c9.309 13.964 27.927 23.273 46.545 23.273h13.964l377.018-116.364h13.964c18.618 0 32.582 9.309 41.891 23.273l83.782 121.018 311.855-102.4zM716.8 243.2c0 83.782 69.818 153.6 153.6 153.6s153.6-69.818 153.6-153.6-69.818-153.6-153.6-153.6v0c-83.782-4.655-153.6 65.164-153.6 153.6zM870.4 178.036c32.582 0 55.855 23.273 55.855 55.855 0 0 0 0 0 0 0 32.582-23.273 55.855-55.855 55.855s-55.855-23.273-55.855-55.855c0-27.927 23.273-55.855 55.855-55.855 0 0 0 0 0 0zM0 257.164c0 93.091 74.473 167.564 167.564 167.564s167.564-74.473 167.564-167.564-74.473-167.564-167.564-167.564-167.564 74.473-167.564 167.564c0 0 0 0 0 0zM167.564 196.655c32.582 0 60.509 27.927 60.509 60.509s-27.927 60.509-60.509 60.509v0c-32.582 0-60.509-27.927-60.509-60.509s27.927-60.509 60.509-60.509z" />
<glyph unicode="&#xe91d;" glyph-name="all-terrain-trail-white-30" d="M808.96 645.973v126.293h-10.24c-34.133 0-64.853-27.307-64.853-64.853 0-34.133 27.307-64.853 64.853-64.853 0 3.413 10.24 3.413 10.24 3.413zM713.387 673.28l-54.613 112.64c-13.653 23.893-37.547 37.547-64.853 37.547h-129.707c-10.24 0-20.48-10.24-20.48-20.48 0-13.653 10.24-20.48 20.48-20.48h129.707c10.24 0 20.48-6.827 27.307-17.067l34.133-71.68 58.027-20.48zM969.387 557.227c17.067-3.413 30.72-20.48 30.72-37.547h-95.573c-122.88 0-225.28-98.987-225.28-225.28h-307.2c0 98.987-64.853 184.32-153.6 211.627l-167.253 54.613 27.307 40.96c13.653 17.067 30.72 27.307 47.787 27.307 3.413 0 6.827 0 13.653 0l375.467-116.053c3.413 0 10.24-3.413 13.653-3.413 17.067 0 30.72 10.24 40.96 20.48l85.333 122.88 314.027-95.573zM720.213 253.44c0 85.333 68.267 153.6 153.6 153.6s153.6-68.267 153.6-153.6-68.267-153.6-153.6-153.6-153.6 68.267-153.6 153.6zM870.4 195.413c30.72 0 58.027 27.307 58.027 58.027s-23.893 58.027-58.027 58.027c-30.72 0-58.027-23.893-58.027-58.027 3.413-30.72 27.307-58.027 58.027-58.027zM0 270.507c0 92.16 75.093 167.253 167.253 167.253s167.253-75.093 167.253-167.253-75.093-167.253-167.253-167.253-167.253 75.093-167.253 167.253zM167.253 209.067c34.133 0 61.44 27.307 61.44 61.44s-27.307 61.44-61.44 61.44-61.44-27.307-61.44-61.44c0-34.133 27.307-61.44 61.44-61.44z" />
<glyph unicode="&#xe91e;" glyph-name="amphitheater-black-14" d="M351.086 740.571l-65.829-102.4v-124.343h65.829v153.6h87.771v-219.429h146.286v219.429h87.771v-153.6h65.829v124.343l-65.829 102.4zM512 769.829v0c-51.2 0-95.086 43.886-95.086 95.086s43.886 95.086 95.086 95.086 95.086-43.886 95.086-95.086-43.886-95.086-95.086-95.086zM190.171 382.171l-58.514-124.343c0 0 307.2-65.829 380.343-65.829s380.343 65.829 380.343 65.829l-65.829 131.657c0 0-234.057-51.2-321.829-51.2s-314.514 43.886-314.514 43.886zM65.829 126.171l-65.829-124.343c0 0 409.6-65.829 512-65.829s512 65.829 512 65.829l-65.829 131.657c0 0-343.771-73.143-446.171-73.143s-446.171 65.829-446.171 65.829z" />
<glyph unicode="&#xe91f;" glyph-name="amphitheater-black-22" d="M507.345 820.364h-37.236c-27.927 0-51.2 23.273-51.2 51.2v37.236c0 27.927 23.273 51.2 51.2 51.2 0 0 0 0 0 0h37.236c27.927 0 51.2-23.273 51.2-51.2v-37.236c0-27.927-23.273-51.2-51.2-51.2v0zM418.909 494.545h139.636v186.182h46.545v-139.636h46.545v186.182l-93.091 46.545h-139.636l-93.091-46.545v-186.182h46.545v139.636h46.545zM1024-31.418l-27.927 97.745c-162.909-18.618-321.164-27.927-484.073-27.927-158.255 0-321.164 9.309-479.418 27.927l-32.582-97.745c172.218-18.618 339.782-32.582 512-32.582s339.782 13.964 512 32.582zM88.436 247.855l-27.927-97.745c144.291-13.964 293.236-23.273 451.491-23.273s307.2 9.309 451.491 23.273l-27.927 97.745c-139.636-13.964-283.927-23.273-423.564-23.273s-283.927 9.309-423.564 23.273zM512 313.018c130.327 0 260.655 4.655 390.982 18.618l-27.927 97.745c-116.364-9.309-237.382-18.618-363.055-18.618s-242.036 9.309-358.4 18.618l-27.927-97.745c121.018-9.309 251.345-18.618 386.327-18.618z" />
<glyph unicode="&#xe920;" glyph-name="amphitheater-black-30" d="M409.6 482.133h170.667v204.8h34.133v-170.667h68.267v204.8l-68.267 68.267h-238.933l-68.267-68.267v-204.8h68.267v170.667h34.133v-204.8zM563.2 891.733c0-37.703-30.564-68.267-68.267-68.267s-68.267 30.564-68.267 68.267c0 37.703 30.564 68.267 68.267 68.267s68.267-30.564 68.267-68.267zM1024-29.867l-30.72 95.573c-142.798-19.564-307.82-30.732-475.45-30.732-3.25 0-6.499 0.004-9.747 0.013l0.504-0.001c-169.815 0.214-337.068 10.128-501.523 29.218l20.243-1.911-27.307-95.573c150.195-19.568 323.905-30.737 500.223-30.737 4.142 0 8.282 0.006 12.421 0.018l-0.644-0.002c6.086-0.038 13.282-0.059 20.484-0.059 173.372 0 343.842 12.429 510.566 36.444l-19.050-2.251zM88.747 246.613l-30.72-98.987c128.254-15.258 276.797-23.964 427.374-23.964 8.152 0 16.298 0.026 24.438 0.076l-1.253-0.006c157.013 0 307.2 10.24 453.973 23.893l-30.72 98.987c-125.9-14.29-272.962-22.944-421.854-23.886l-1.4-0.007c-143.36 3.413-283.307 10.24-419.84 23.893zM512 314.88c136.533 0 266.24 6.827 392.533 17.067l-30.72 98.987c-116.053-10.24-238.933-17.067-365.227-17.067s-242.347 6.827-358.4 17.067l-30.72-98.987c126.293-10.24 256-17.067 392.533-17.067z" />
<glyph unicode="&#xe921;" glyph-name="amphitheater-white-14" d="M351.086 740.571l-65.829-102.4v-124.343h65.829v153.6h87.771v-219.429h146.286v219.429h87.771v-153.6h65.829v124.343l-65.829 102.4zM512 769.829v0c-51.2 0-95.086 43.886-95.086 95.086s43.886 95.086 95.086 95.086 95.086-43.886 95.086-95.086-43.886-95.086-95.086-95.086zM190.171 382.171l-58.514-124.343c0 0 307.2-65.829 380.343-65.829s380.343 65.829 380.343 65.829l-65.829 131.657c0 0-234.057-51.2-321.829-51.2s-314.514 43.886-314.514 43.886zM65.829 126.171l-65.829-124.343c0 0 409.6-65.829 512-65.829s512 65.829 512 65.829l-65.829 131.657c0 0-343.771-73.143-446.171-73.143s-446.171 65.829-446.171 65.829z" />
<glyph unicode="&#xe922;" glyph-name="amphitheater-white-22" d="M507.345 820.364h-37.236c-27.927 0-51.2 23.273-51.2 51.2v37.236c0 27.927 23.273 51.2 51.2 51.2 0 0 0 0 0 0h37.236c27.927 0 51.2-23.273 51.2-51.2v-37.236c0-27.927-23.273-51.2-51.2-51.2v0zM418.909 494.545h139.636v186.182h46.545v-139.636h46.545v186.182l-93.091 46.545h-139.636l-93.091-46.545v-186.182h46.545v139.636h46.545zM1024-31.418l-27.927 97.745c-162.909-18.618-321.164-27.927-484.073-27.927-158.255 0-321.164 9.309-479.418 27.927l-32.582-97.745c172.218-18.618 339.782-32.582 512-32.582s339.782 13.964 512 32.582zM88.436 247.855l-27.927-97.745c144.291-13.964 293.236-23.273 451.491-23.273s307.2 9.309 451.491 23.273l-27.927 97.745c-139.636-13.964-283.927-23.273-423.564-23.273s-283.927 9.309-423.564 23.273zM512 313.018c130.327 0 260.655 4.655 390.982 18.618l-27.927 97.745c-116.364-9.309-237.382-18.618-363.055-18.618s-242.036 9.309-358.4 18.618l-27.927-97.745c121.018-9.309 251.345-18.618 386.327-18.618z" />
<glyph unicode="&#xe923;" glyph-name="amphitheater-white-30" d="M409.6 482.133h170.667v204.8h34.133v-170.667h68.267v204.8l-68.267 68.267h-238.933l-68.267-68.267v-204.8h68.267v170.667h34.133v-204.8zM563.2 891.733c0-37.703-30.564-68.267-68.267-68.267s-68.267 30.564-68.267 68.267c0 37.703 30.564 68.267 68.267 68.267s68.267-30.564 68.267-68.267zM1024-29.867l-30.72 95.573c-142.798-19.564-307.82-30.732-475.45-30.732-3.25 0-6.499 0.004-9.747 0.013l0.504-0.001c-169.815 0.214-337.068 10.128-501.523 29.218l20.243-1.911-27.307-95.573c150.195-19.568 323.905-30.737 500.223-30.737 4.142 0 8.282 0.006 12.421 0.018l-0.644-0.002c6.086-0.038 13.282-0.059 20.484-0.059 173.372 0 343.842 12.429 510.566 36.444l-19.050-2.251zM88.747 246.613l-30.72-98.987c128.254-15.258 276.797-23.964 427.374-23.964 8.152 0 16.298 0.026 24.438 0.076l-1.253-0.006c157.013 0 307.2 10.24 453.973 23.893l-30.72 98.987c-125.9-14.29-272.962-22.944-421.854-23.886l-1.4-0.007c-143.36 3.413-283.307 10.24-419.84 23.893zM512 314.88c136.533 0 266.24 6.827 392.533 17.067l-30.72 98.987c-116.053-10.24-238.933-17.067-365.227-17.067s-242.347 6.827-358.4 17.067l-30.72-98.987c126.293-10.24 256-17.067 392.533-17.067z" />
<glyph unicode="&#xe924;" glyph-name="aquatic-invasive-species-decontamination-station-black-14" d="M292.571 960h138.971l87.771-146.286 87.771 146.286h124.343l-138.971-212.114 153.6-226.743h-138.971l-102.4 160.914-95.086-160.914h-131.657l153.6 226.743-138.971 212.114zM753.371 294.4l-102.4 124.343v-109.714c-21.943 0-36.571 7.314-58.514 7.314l-80.457 102.4-7.314-109.714c-21.943 0-51.2 0-73.143-7.314l-58.514 80.457v-95.086c-21.943-7.314-51.2-14.629-73.143-21.943l-65.829 73.143v-109.714c-14.629-7.314-29.257-21.943-43.886-29.257-14.629 14.629-29.257 21.943-43.886 36.571-29.257 21.943-109.714 36.571-146.286 58.514l87.771-124.343-87.771-124.343c36.571 14.629 117.029 36.571 146.286 58.514 14.629 7.314 29.257 21.943 43.886 36.571 95.086-65.829 234.057-117.029 394.971-117.029 117.029 0 226.743 29.257 314.514 65.829l29.257-95.086 36.571 131.657c21.943 14.629 36.571 29.257 58.514 43.886-58.514 58.514-153.6 102.4-270.629 124.343zM804.571 155.429h-73.143v73.143h73.143v-73.143z" />
<glyph unicode="&#xe925;" glyph-name="aquatic-invasive-species-decontamination-station-black-22" d="M754.036 299.055l-102.4 116.364v-107.055c-18.618 0-37.236 4.655-55.855 4.655l-83.782 107.055-4.655-111.709c-23.273 0-46.545-4.655-69.818-9.309l-65.164 83.782v-97.745c-23.273-9.309-51.2-13.964-74.473-23.273l-65.164 79.127v-107.055c-18.618-9.309-32.582-18.618-46.545-32.582-13.964 9.309-27.927 23.273-41.891 32.582-32.582 18.618-107.055 41.891-144.291 55.855l83.782-121.018-83.782-125.673c37.236 18.618 116.364 37.236 144.291 55.855 18.618 13.964 27.927 23.273 41.891 37.236 93.091-69.818 232.727-116.364 395.636-116.364 121.018 0 228.073 27.927 316.509 65.164l32.582-97.745 37.236 134.982c18.618 13.964 41.891 27.927 55.855 41.891-60.509 65.164-158.255 107.055-269.964 134.982zM768 145.455c-27.927 0-46.545 18.618-46.545 46.545s18.618 46.545 46.545 46.545 46.545-18.618 46.545-46.545-18.618-46.545-46.545-46.545zM297.891 960h134.982l88.436-144.291 83.782 144.291h121.018l-134.982-209.455 148.945-232.727h-139.636l-93.091 162.909-102.4-162.909h-125.673l153.6 232.727-134.982 209.455z" />
<glyph unicode="&#xe926;" glyph-name="aquatic-invasive-species-decontamination-station-black-30" d="M754.347 297.813l-102.4 119.467v-105.813c-20.48 0-37.547 3.413-58.027 3.413l-81.92 102.4-6.827-109.227c-23.893-3.413-47.787-3.413-71.68-6.827l-64.853 78.507-3.413-95.573c-23.893-6.827-51.2-13.653-71.68-23.893l-64.853 78.507v-109.227c-17.067-10.24-30.72-20.48-44.373-30.72-13.653 10.24-27.307 23.893-44.373 34.133-30.72 20.48-109.227 40.96-146.773 58.027l85.333-122.88-78.507-122.88c37.547 17.067 112.64 34.133 146.773 58.027 17.067 10.24 27.307 23.893 44.373 34.133 92.16-68.267 232.107-116.053 395.947-116.053 119.467 0 228.693 27.307 314.027 68.267l30.72-95.573 37.547 133.12c20.48 13.653 40.96 27.307 54.613 40.96-61.44 61.44-157.013 105.813-269.653 129.707zM785.067 157.867c-27.307 0-51.2 23.893-51.2 51.2s23.893 51.2 51.2 51.2 51.2-23.893 51.2-51.2-23.893-51.2-51.2-51.2zM296.96 960h136.533l88.747-143.36 81.92 143.36h122.88l-133.12-211.627 150.187-232.107h-136.533l-98.987 163.84-102.4-163.84h-126.293l153.6 232.107-136.533 211.627z" />
<glyph unicode="&#xe927;" glyph-name="aquatic-invasive-species-decontamination-station-white-14" d="M292.571 960h138.971l87.771-146.286 87.771 146.286h124.343l-138.971-212.114 153.6-226.743h-138.971l-102.4 160.914-95.086-160.914h-131.657l153.6 226.743-138.971 212.114zM753.371 294.4l-102.4 124.343v-109.714c-21.943 0-36.571 7.314-58.514 7.314l-80.457 102.4-7.314-109.714c-21.943 0-51.2 0-73.143-7.314l-58.514 80.457v-95.086c-21.943-7.314-51.2-14.629-73.143-21.943l-65.829 73.143v-109.714c-14.629-7.314-29.257-21.943-43.886-29.257-14.629 14.629-29.257 21.943-43.886 36.571-29.257 21.943-109.714 36.571-146.286 58.514l87.771-124.343-87.771-124.343c36.571 14.629 117.029 36.571 146.286 58.514 14.629 7.314 29.257 21.943 43.886 36.571 95.086-65.829 234.057-117.029 394.971-117.029 117.029 0 226.743 29.257 314.514 65.829l29.257-95.086 36.571 131.657c21.943 14.629 36.571 29.257 58.514 43.886-58.514 58.514-153.6 102.4-270.629 124.343zM804.571 155.429h-73.143v73.143h73.143v-73.143z" />
<glyph unicode="&#xe928;" glyph-name="aquatic-invasive-species-decontamination-station-white-22" d="M754.036 299.055l-102.4 116.364v-107.055c-18.618 0-37.236 4.655-55.855 4.655l-83.782 107.055-4.655-111.709c-23.273 0-46.545-4.655-69.818-9.309l-65.164 83.782v-97.745c-23.273-9.309-51.2-13.964-74.473-23.273l-65.164 79.127v-107.055c-18.618-9.309-32.582-18.618-46.545-32.582-13.964 9.309-27.927 23.273-41.891 32.582-32.582 18.618-107.055 41.891-144.291 55.855l83.782-121.018-83.782-125.673c37.236 18.618 116.364 37.236 144.291 55.855 18.618 13.964 27.927 23.273 41.891 37.236 93.091-69.818 232.727-116.364 395.636-116.364 121.018 0 228.073 27.927 316.509 65.164l32.582-97.745 37.236 134.982c18.618 13.964 41.891 27.927 55.855 41.891-60.509 65.164-158.255 107.055-269.964 134.982zM768 145.455c-27.927 0-46.545 18.618-46.545 46.545s18.618 46.545 46.545 46.545 46.545-18.618 46.545-46.545-18.618-46.545-46.545-46.545zM297.891 960h134.982l88.436-144.291 83.782 144.291h121.018l-134.982-209.455 148.945-232.727h-139.636l-93.091 162.909-102.4-162.909h-125.673l153.6 232.727-134.982 209.455z" />
<glyph unicode="&#xe929;" glyph-name="aquatic-invasive-species-decontamination-station-white-30" d="M754.347 297.813l-102.4 119.467v-105.813c-20.48 0-37.547 3.413-58.027 3.413l-81.92 102.4-6.827-109.227c-23.893-3.413-47.787-3.413-71.68-6.827l-64.853 78.507-3.413-95.573c-23.893-6.827-51.2-13.653-71.68-23.893l-64.853 78.507v-109.227c-17.067-10.24-30.72-20.48-44.373-30.72-13.653 10.24-27.307 23.893-44.373 34.133-30.72 20.48-109.227 40.96-146.773 58.027l85.333-122.88-78.507-122.88c37.547 17.067 112.64 34.133 146.773 58.027 17.067 10.24 27.307 23.893 44.373 34.133 92.16-68.267 232.107-116.053 395.947-116.053 119.467 0 228.693 27.307 314.027 68.267l30.72-95.573 37.547 133.12c20.48 13.653 40.96 27.307 54.613 40.96-61.44 61.44-157.013 105.813-269.653 129.707zM785.067 157.867c-27.307 0-51.2 23.893-51.2 51.2s23.893 51.2 51.2 51.2 51.2-23.893 51.2-51.2-23.893-51.2-51.2-51.2zM296.96 960h136.533l88.747-143.36 81.92 143.36h122.88l-133.12-211.627 150.187-232.107h-136.533l-98.987 163.84-102.4-163.84h-126.293l153.6 232.107-136.533 211.627z" />
<glyph unicode="&#xe92a;" glyph-name="aquatic-invasive-species-inspection-sticker-black-14" d="M146.286 886.857h731.429v-73.143h-731.429v73.143zM146.286 740.571h731.429v-73.143h-731.429v73.143zM146.286 594.286h512v-73.143h-512v73.143zM753.371 294.4l-102.4 124.343v-109.714c-21.943 0-36.571 7.314-58.514 7.314l-80.457 102.4-7.314-109.714c-21.943 0-51.2 0-73.143-7.314l-58.514 80.457v-95.086c-21.943-7.314-51.2-14.629-73.143-21.943l-65.829 73.143v-109.714c-14.629-7.314-29.257-21.943-43.886-29.257-14.629 14.629-29.257 21.943-43.886 36.571-29.257 21.943-109.714 36.571-146.286 58.514l87.771-124.343-87.771-124.343c36.571 14.629 117.029 36.571 146.286 58.514 14.629 7.314 29.257 21.943 43.886 36.571 95.086-65.829 234.057-117.029 394.971-117.029 117.029 0 226.743 29.257 314.514 65.829l29.257-95.086 36.571 131.657c21.943 14.629 36.571 29.257 58.514 43.886-58.514 58.514-153.6 102.4-270.629 124.343zM804.571 155.429h-73.143v73.143h73.143v-73.143z" />
<glyph unicode="&#xe92b;" glyph-name="aquatic-invasive-species-inspection-sticker-black-22" d="M139.636 773.818h744.727v-93.091h-744.727v93.091zM139.636 634.182h558.545v-93.091h-558.545v93.091zM139.636 913.455h744.727v-93.091h-744.727v93.091zM754.036 345.6l-102.4 116.364v-107.055c-18.618 0-37.236 4.655-55.855 4.655l-83.782 107.055-4.655-111.709c-23.273 0-46.545-4.655-69.818-9.309l-65.164 83.782v-97.745c-23.273-9.309-51.2-13.964-74.473-23.273l-65.164 79.127v-107.055c-18.618-9.309-32.582-18.618-46.545-32.582-13.964 9.309-27.927 23.273-41.891 32.582-32.582 18.618-107.055 41.891-144.291 55.855l83.782-121.018-83.782-125.673c37.236 18.618 116.364 37.236 144.291 55.855 18.618 13.964 27.927 23.273 41.891 37.236 93.091-69.818 232.727-116.364 395.636-116.364 121.018 0 228.073 27.927 316.509 65.164l32.582-97.745 37.236 134.982c18.618 13.964 41.891 27.927 55.855 41.891-60.509 65.164-158.255 107.055-269.964 134.982zM768 192c-27.927 0-46.545 18.618-46.545 46.545s18.618 46.545 46.545 46.545 46.545-18.618 46.545-46.545-18.618-46.545-46.545-46.545z" />
<glyph unicode="&#xe92c;" glyph-name="aquatic-invasive-species-inspection-sticker-black-30" d="M136.533 755.2h750.933v-68.267h-750.933v68.267zM136.533 618.667h546.133v-68.267h-546.133v68.267zM136.533 891.733h750.933v-68.267h-750.933v68.267zM754.347 331.947l-102.4 119.467v-105.813c-20.48 0-37.547 3.413-58.027 3.413l-81.92 102.4-6.827-109.227c-23.893-3.413-47.787-3.413-71.68-6.827l-64.853 78.507-3.413-95.573c-23.893-6.827-51.2-13.653-71.68-23.893l-64.853 78.507v-109.227c-17.067-10.24-30.72-20.48-44.373-30.72-13.653 10.24-27.307 23.893-44.373 34.133-30.72 20.48-109.227 40.96-146.773 58.027l85.333-122.88-78.507-122.88c37.547 17.067 112.64 34.133 146.773 58.027 17.067 10.24 27.307 23.893 44.373 34.133 92.16-68.267 232.107-116.053 395.947-116.053 119.467 0 228.693 27.307 314.027 68.267l30.72-95.573 37.547 133.12c20.48 13.653 40.96 27.307 54.613 40.96-61.44 61.44-157.013 105.813-269.653 129.707zM785.067 192c-27.307 0-51.2 23.893-51.2 51.2s23.893 51.2 51.2 51.2 51.2-23.893 51.2-51.2-23.893-51.2-51.2-51.2z" />
<glyph unicode="&#xe92d;" glyph-name="aquatic-invasive-species-inspection-sticker-white-14" d="M146.286 886.857h731.429v-73.143h-731.429v73.143zM146.286 740.571h731.429v-73.143h-731.429v73.143zM146.286 594.286h512v-73.143h-512v73.143zM753.371 294.4l-102.4 124.343v-109.714c-21.943 0-36.571 7.314-58.514 7.314l-80.457 102.4-7.314-109.714c-21.943 0-51.2 0-73.143-7.314l-58.514 80.457v-95.086c-21.943-7.314-51.2-14.629-73.143-21.943l-65.829 73.143v-109.714c-14.629-7.314-29.257-21.943-43.886-29.257-14.629 14.629-29.257 21.943-43.886 36.571-29.257 21.943-109.714 36.571-146.286 58.514l87.771-124.343-87.771-124.343c36.571 14.629 117.029 36.571 146.286 58.514 14.629 7.314 29.257 21.943 43.886 36.571 95.086-65.829 234.057-117.029 394.971-117.029 117.029 0 226.743 29.257 314.514 65.829l29.257-95.086 36.571 131.657c21.943 14.629 36.571 29.257 58.514 43.886-58.514 58.514-153.6 102.4-270.629 124.343zM804.571 155.429h-73.143v73.143h73.143v-73.143z" />
<glyph unicode="&#xe92e;" glyph-name="aquatic-invasive-species-inspection-sticker-white-22" d="M139.636 773.818h744.727v-93.091h-744.727v93.091zM139.636 634.182h558.545v-93.091h-558.545v93.091zM139.636 913.455h744.727v-93.091h-744.727v93.091zM754.036 345.6l-102.4 116.364v-107.055c-18.618 0-37.236 4.655-55.855 4.655l-83.782 107.055-4.655-111.709c-23.273 0-46.545-4.655-69.818-9.309l-65.164 83.782v-97.745c-23.273-9.309-51.2-13.964-74.473-23.273l-65.164 79.127v-107.055c-18.618-9.309-32.582-18.618-46.545-32.582-13.964 9.309-27.927 23.273-41.891 32.582-32.582 18.618-107.055 41.891-144.291 55.855l83.782-121.018-83.782-125.673c37.236 18.618 116.364 37.236 144.291 55.855 18.618 13.964 27.927 23.273 41.891 37.236 93.091-69.818 232.727-116.364 395.636-116.364 121.018 0 228.073 27.927 316.509 65.164l32.582-97.745 37.236 134.982c18.618 13.964 41.891 27.927 55.855 41.891-60.509 65.164-158.255 107.055-269.964 134.982zM768 192c-27.927 0-46.545 18.618-46.545 46.545s18.618 46.545 46.545 46.545 46.545-18.618 46.545-46.545-18.618-46.545-46.545-46.545z" />
<glyph unicode="&#xe92f;" glyph-name="aquatic-invasive-species-inspection-sticker-white-30" d="M136.533 755.2h750.933v-68.267h-750.933v68.267zM136.533 618.667h546.133v-68.267h-546.133v68.267zM136.533 891.733h750.933v-68.267h-750.933v68.267zM754.347 331.947l-102.4 119.467v-105.813c-20.48 0-37.547 3.413-58.027 3.413l-81.92 102.4-6.827-109.227c-23.893-3.413-47.787-3.413-71.68-6.827l-64.853 78.507-3.413-95.573c-23.893-6.827-51.2-13.653-71.68-23.893l-64.853 78.507v-109.227c-17.067-10.24-30.72-20.48-44.373-30.72-13.653 10.24-27.307 23.893-44.373 34.133-30.72 20.48-109.227 40.96-146.773 58.027l85.333-122.88-78.507-122.88c37.547 17.067 112.64 34.133 146.773 58.027 17.067 10.24 27.307 23.893 44.373 34.133 92.16-68.267 232.107-116.053 395.947-116.053 119.467 0 228.693 27.307 314.027 68.267l30.72-95.573 37.547 133.12c20.48 13.653 40.96 27.307 54.613 40.96-61.44 61.44-157.013 105.813-269.653 129.707zM785.067 192c-27.307 0-51.2 23.893-51.2 51.2s23.893 51.2 51.2 51.2 51.2-23.893 51.2-51.2-23.893-51.2-51.2-51.2z" />
<glyph unicode="&#xe930;" glyph-name="archery-black-14" d="M219.429 740.571h219.429v-73.143h-219.429v73.143zM512 813.714c0-40.396-32.747-73.143-73.143-73.143s-73.143 32.747-73.143 73.143c0 40.396 32.747 73.143 73.143 73.143s73.143-32.747 73.143-73.143zM804.571 740.571c-7.314 80.457-29.257 153.6-58.514 204.8-7.314 7.314-14.629 7.314-14.629 14.629h-29.257l-7.314-14.629-182.857-175.543v-131.657l212.114-212.114c0 0 7.314 7.314 7.314 7.314v14.629c0 0 7.314 7.314 7.314 14.629 36.571 51.2 58.514 124.343 65.829 204.8v0 73.143zM716.8 916.114c29.257-43.886 43.886-102.4 51.2-175.543h-226.743l175.543 175.543zM716.8 491.886l-175.543 175.543h226.743c-7.314-73.143-21.943-131.657-51.2-175.543zM585.143-20.114v0l-73.143 321.829v365.714c0-43.886-29.257-73.143-73.143-73.143h-146.286v-285.257l-73.143-321.829c0-7.314 0-7.314 0-14.629 0-21.943 14.629-36.571 36.571-36.571 14.629 0 29.257 7.314 36.571 21.943v0l95.086 343.771h36.571l87.771-336.457c0-14.629 14.629-29.257 36.571-29.257s36.571 14.629 36.571 43.886c0-7.314 0 0 0 0z" />
<glyph unicode="&#xe931;" glyph-name="archery-black-22" d="M414.255 741.236c46.545 0 83.782 37.236 83.782 83.782s-37.236 88.436-83.782 88.436c-46.545 0-83.782-37.236-83.782-83.782s37.236-88.436 83.782-88.436zM437.527 652.8c51.2 0 51.2 65.164 0 65.164h-214.109c-51.2 0-51.2-65.164 0-65.164h214.109c0 0 0 0 0 0zM744.727 941.382c0 0-13.964 18.618-13.964 18.618l-223.418-223.418c9.309-13.964 18.618-27.927 18.618-46.545 0-46.545-37.236-79.127-83.782-79.127h-116.364v-283.927c0 0-74.473-330.473-74.473-330.473-4.655-27.927 13.964-51.2 37.236-55.855 27.927-4.655 51.2 9.309 55.855 37.236l69.818 344.436h32.582l69.818-344.436c4.655-27.927 27.927-41.891 55.855-37.236 23.273 4.655 41.891 27.927 37.236 55.855l-65.164 335.127v279.273l186.182-186.182c0 0 13.964 18.618 13.964 18.618 60.509 69.818 93.091 158.255 93.091 256 0 83.782-32.582 172.218-93.091 242.036zM446.836 317.673v0c0 0 0 0 0 0v0zM521.309 722.618c51.2 46.545 144.291 144.291 190.836 190.836 46.545-55.855 74.473-121.018 79.127-190.836h-269.964zM712.145 461.964c-41.891 41.891-121.018 121.018-172.218 172.218v18.618h256c-9.309-69.818-37.236-134.982-83.782-190.836z" />
<glyph unicode="&#xe932;" glyph-name="archery-black-30" d="M416.427 741.547c47.787 0 85.333 37.547 85.333 85.333s-37.547 85.333-85.333 85.333c-47.787 0-85.333-37.547-85.333-85.333s37.547-85.333 85.333-85.333zM744.107 942.933c0 0-17.067 17.067-17.067 17.067l-232.107-232.107c6.827-10.24 13.653-23.893 13.653-37.547 0-23.893-13.653-51.2-40.96-61.44-13.653-10.24-17.067-10.24-30.72-10.24h-129.707v-293.547c0 0 0 0 0 0l-54.613-331.093c-3.413-27.307 10.24-51.2 37.547-54.613 27.307-6.827 51.2 10.24 54.613 37.547l68.267 341.333h30.72l68.267-341.333c6.827-27.307 30.72-40.96 54.613-37.547s40.96 30.72 37.547 54.613l-64.853 334.507v279.893l187.733-187.733c0 0 17.067 17.067 17.067 17.067 61.44 71.68 95.573 160.427 95.573 252.587s-34.133 180.907-95.573 252.587zM447.147 318.293v0c0 0 0 0 0 0v0zM522.24 721.067c51.2 51.2 143.36 143.36 191.147 191.147 47.787-54.613 75.093-119.467 81.92-191.147h-273.067zM713.387 465.067c-40.96 40.96-119.467 119.467-174.080 174.080v17.067h252.587c-3.413-71.68-30.72-136.533-78.507-191.147zM436.907 721.067h-211.627c-51.2 0-51.2-64.853 0-64.853h211.627c0 0 0 0 0 0 47.787 0 47.787 64.853 0 64.853z" />
<glyph unicode="&#xe933;" glyph-name="archery-white-14" d="M219.429 740.571h219.429v-73.143h-219.429v73.143zM512 813.714c0-40.396-32.747-73.143-73.143-73.143s-73.143 32.747-73.143 73.143c0 40.396 32.747 73.143 73.143 73.143s73.143-32.747 73.143-73.143zM804.571 740.571c-7.314 80.457-29.257 153.6-58.514 204.8-7.314 7.314-14.629 7.314-14.629 14.629h-29.257l-7.314-14.629-182.857-175.543v-131.657l212.114-212.114c0 0 7.314 7.314 7.314 7.314v14.629c0 0 7.314 7.314 7.314 14.629 36.571 51.2 58.514 124.343 65.829 204.8v0 73.143zM716.8 916.114c29.257-43.886 43.886-102.4 51.2-175.543h-226.743l175.543 175.543zM716.8 491.886l-175.543 175.543h226.743c-7.314-73.143-21.943-131.657-51.2-175.543zM585.143-20.114v0l-73.143 321.829v365.714c0-43.886-29.257-73.143-73.143-73.143h-146.286v-285.257l-73.143-321.829c0-7.314 0-7.314 0-14.629 0-21.943 14.629-36.571 36.571-36.571 14.629 0 29.257 7.314 36.571 21.943v0l95.086 343.771h36.571l87.771-336.457c0-14.629 14.629-29.257 36.571-29.257s36.571 14.629 36.571 43.886c0-7.314 0 0 0 0z" />
<glyph unicode="&#xe934;" glyph-name="archery-white-22" d="M414.255 741.236c46.545 0 83.782 37.236 83.782 83.782s-37.236 88.436-83.782 88.436c-46.545 0-83.782-37.236-83.782-83.782s37.236-88.436 83.782-88.436zM437.527 652.8c51.2 0 51.2 65.164 0 65.164h-214.109c-51.2 0-51.2-65.164 0-65.164h214.109c0 0 0 0 0 0zM744.727 941.382c0 0-13.964 18.618-13.964 18.618l-223.418-223.418c9.309-13.964 18.618-27.927 18.618-46.545 0-46.545-37.236-79.127-83.782-79.127h-116.364v-283.927c0 0-74.473-330.473-74.473-330.473-4.655-27.927 13.964-51.2 37.236-55.855 27.927-4.655 51.2 9.309 55.855 37.236l69.818 344.436h32.582l69.818-344.436c4.655-27.927 27.927-41.891 55.855-37.236 23.273 4.655 41.891 27.927 37.236 55.855l-65.164 335.127v279.273l186.182-186.182c0 0 13.964 18.618 13.964 18.618 60.509 69.818 93.091 158.255 93.091 256 0 83.782-32.582 172.218-93.091 242.036zM446.836 317.673v0c0 0 0 0 0 0v0zM521.309 722.618c51.2 46.545 144.291 144.291 190.836 190.836 46.545-55.855 74.473-121.018 79.127-190.836h-269.964zM712.145 461.964c-41.891 41.891-121.018 121.018-172.218 172.218v18.618h256c-9.309-69.818-37.236-134.982-83.782-190.836z" />
<glyph unicode="&#xe935;" glyph-name="archery-white-30" d="M416.427 741.547c47.787 0 85.333 37.547 85.333 85.333s-37.547 85.333-85.333 85.333c-47.787 0-85.333-37.547-85.333-85.333s37.547-85.333 85.333-85.333zM744.107 942.933c0 0-17.067 17.067-17.067 17.067l-232.107-232.107c6.827-10.24 13.653-23.893 13.653-37.547 0-23.893-13.653-51.2-40.96-61.44-13.653-10.24-17.067-10.24-30.72-10.24h-129.707v-293.547c0 0 0 0 0 0l-54.613-331.093c-3.413-27.307 10.24-51.2 37.547-54.613 27.307-6.827 51.2 10.24 54.613 37.547l68.267 341.333h30.72l68.267-341.333c6.827-27.307 30.72-40.96 54.613-37.547s40.96 30.72 37.547 54.613l-64.853 334.507v279.893l187.733-187.733c0 0 17.067 17.067 17.067 17.067 61.44 71.68 95.573 160.427 95.573 252.587s-34.133 180.907-95.573 252.587zM447.147 318.293v0c0 0 0 0 0 0v0zM522.24 721.067c51.2 51.2 143.36 143.36 191.147 191.147 47.787-54.613 75.093-119.467 81.92-191.147h-273.067zM713.387 465.067c-40.96 40.96-119.467 119.467-174.080 174.080v17.067h252.587c-3.413-71.68-30.72-136.533-78.507-191.147zM436.907 721.067h-211.627c-51.2 0-51.2-64.853 0-64.853h211.627c0 0 0 0 0 0 47.787 0 47.787 64.853 0 64.853z" />
<glyph unicode="&#xe936;" glyph-name="art-black-14" d="M804.571 740.571h-146.286v73.143h365.714v-73.143h-146.286v-365.714h-73.143v365.714zM74.386 136.631c0 0 362.569 225.792 875.227 115.419l-116.59-154.258c0 0-364.837 161.426-735.013 0.293l-23.625 38.546zM219.429 813.714h-146.286l-73.143-73.143v-365.714h73.143v146.286h146.286v-146.286h73.143v365.714l-73.143 73.143zM219.429 594.286h-146.286v146.286h146.286v-146.286zM783.141 374.857l-172.105 172.178 47.25 47.25v146.286l-73.143 73.143h-219.429v-438.857h73.143v146.286h94.574l146.286-146.286h103.424zM438.857 740.571h146.286v-146.286h-146.286v146.286z" />
<glyph unicode="&#xe937;" glyph-name="art-black-22" d="M111.43 504.18l-35.049-115.107h-76.381l130.141 406.016h94.534l132.003-406.016h-80.198l-36.771 115.107h-128.279zM227.7 560.128l-31.977 100.026c-7.773 24.669-14.476 52.457-20.433 75.962h-1.21c-5.958-23.505-12.66-51.852-19.27-75.962l-31.372-100.026h104.262zM412.858 789.132c28.346 5.399 69.26 9.030 112.035 9.030 58.415 0 97.559-9.635 125.3-32.582 22.342-18.711 34.909-47.011 34.909-81.92 0-52.41-35.514-87.924-74.054-101.19v-1.769c29.51-10.938 47.011-39.145 56.646-78.429 13.172-50.548 24.111-97.559 31.837-113.199h-75.823c-6.097 12.102-16.337 45.149-27.136 95.791-12.102 53.015-30.673 69.818-72.89 71.121h-37.376v-166.912h-73.449v400.058zM486.307 610.211h43.985c50.083 0 80.756 26.438 80.756 66.886 0 43.985-30.673 65.024-78.895 65.024-23.505 0-38.54-1.769-45.847-3.537v-128.372zM832.977 733.044h-115.665v62.045h306.688v-62.045h-116.969v-343.971h-74.054v343.971zM74.38 136.657c0 0 362.543 225.792 875.241 115.386l-116.596-154.252c0 0-364.823 161.466-735.046 0.279l-23.599 38.586z" />
<glyph unicode="&#xe938;" glyph-name="art-black-30" d="M111.445 504.183l-35.021-115.098h-76.425l130.116 406.016h94.515l132.028-406.016h-80.179l-36.796 115.098h-128.239zM227.703 560.128l-31.983 100.045c-7.748 24.678-14.438 52.429-20.446 75.913h-1.195c-5.973-23.484-12.663-51.814-19.251-75.913l-31.403-100.045h104.277zM412.843 789.129c28.331 5.393 69.222 9.045 112.026 9.045 58.436 0 97.553-9.626 125.303-32.563 22.323-18.705 34.918-47.036 34.918-81.92 0-52.429-35.499-87.927-74.069-101.205v-1.775c29.491-10.923 47.036-39.151 56.661-78.404 13.175-50.551 24.098-97.553 31.846-113.186h-75.81c-6.11 12.117-16.35 45.124-27.17 95.812-12.117 53.009-30.686 69.837-72.875 71.134h-37.376v-166.912h-73.455v399.974zM486.332 610.202h43.964c50.074 0 80.759 26.453 80.759 66.901 0 43.964-30.686 64.99-78.882 64.99-23.518 0-38.571-1.775-45.841-3.516v-128.375zM832.99 733.047h-115.678v62.054h306.688v-62.054h-116.975v-343.962h-74.069v343.962zM74.377 136.67c0 0 362.53 225.792 875.213 115.405l-116.599-154.214c0 0-364.817 161.451-735.027 0.273l-23.586 38.537z" />
<glyph unicode="&#xe939;" glyph-name="art-white-14" d="M804.571 740.571h-146.286v73.143h365.714v-73.143h-146.286v-365.714h-73.143v365.714zM74.386 136.631c0 0 362.569 225.792 875.227 115.419l-116.59-154.258c0 0-364.837 161.426-735.013 0.293l-23.625 38.546zM219.429 813.714h-146.286l-73.143-73.143v-365.714h73.143v146.286h146.286v-146.286h73.143v365.714l-73.143 73.143zM219.429 594.286h-146.286v146.286h146.286v-146.286zM783.141 374.857l-172.105 172.178 47.25 47.25v146.286l-73.143 73.143h-219.429v-438.857h73.143v146.286h94.574l146.286-146.286h103.424zM438.857 740.571h146.286v-146.286h-146.286v146.286z" />
<glyph unicode="&#xe93a;" glyph-name="art-white-22" d="M111.43 504.18l-35.049-115.107h-76.381l130.141 406.016h94.534l132.003-406.016h-80.198l-36.771 115.107h-128.279zM227.7 560.128l-31.977 100.026c-7.773 24.669-14.476 52.457-20.433 75.962h-1.21c-5.958-23.505-12.66-51.852-19.27-75.962l-31.372-100.026h104.262zM412.858 789.132c28.346 5.399 69.26 9.030 112.035 9.030 58.415 0 97.559-9.635 125.3-32.582 22.342-18.711 34.909-47.011 34.909-81.92 0-52.41-35.514-87.924-74.054-101.19v-1.769c29.51-10.938 47.011-39.145 56.646-78.429 13.172-50.548 24.111-97.559 31.837-113.199h-75.823c-6.097 12.102-16.337 45.149-27.136 95.791-12.102 53.015-30.673 69.818-72.89 71.121h-37.376v-166.912h-73.449v400.058zM486.307 610.211h43.985c50.083 0 80.756 26.438 80.756 66.886 0 43.985-30.673 65.024-78.895 65.024-23.505 0-38.54-1.769-45.847-3.537v-128.372zM832.977 733.044h-115.665v62.045h306.688v-62.045h-116.969v-343.971h-74.054v343.971zM74.38 136.657c0 0 362.543 225.792 875.241 115.386l-116.596-154.252c0 0-364.823 161.466-735.046 0.279l-23.599 38.586z" />
<glyph unicode="&#xe93b;" glyph-name="art-white-30" d="M111.445 504.183l-35.021-115.098h-76.425l130.116 406.016h94.515l132.028-406.016h-80.179l-36.796 115.098h-128.239zM227.703 560.128l-31.983 100.045c-7.748 24.678-14.438 52.429-20.446 75.913h-1.195c-5.973-23.484-12.663-51.814-19.251-75.913l-31.403-100.045h104.277zM412.843 789.129c28.331 5.393 69.222 9.045 112.026 9.045 58.436 0 97.553-9.626 125.303-32.563 22.323-18.705 34.918-47.036 34.918-81.92 0-52.429-35.499-87.927-74.069-101.205v-1.775c29.491-10.923 47.036-39.151 56.661-78.404 13.175-50.551 24.098-97.553 31.846-113.186h-75.81c-6.11 12.117-16.35 45.124-27.17 95.812-12.117 53.009-30.686 69.837-72.875 71.134h-37.376v-166.912h-73.455v399.974zM486.332 610.202h43.964c50.074 0 80.759 26.453 80.759 66.901 0 43.964-30.686 64.99-78.882 64.99-23.518 0-38.571-1.775-45.841-3.516v-128.375zM832.99 733.047h-115.678v62.054h306.688v-62.054h-116.975v-343.962h-74.069v343.962zM74.377 136.67c0 0 362.53 225.792 875.213 115.405l-116.599-154.214c0 0-364.817 161.451-735.027 0.273l-23.586 38.537z" />
<glyph unicode="&#xe93c;" glyph-name="ash-disposal-black-14" d="M0 374.857h73.143l73.143-365.714h219.429l73.143 365.714h73.143l-73.143-438.857h-365.714zM438.857 594.286h73.143v-73.143h-73.143v73.143zM292.571 594.286h73.143v-73.143h-73.143v73.143zM292.571 448h73.143v-73.143h-73.143v73.143zM146.286 448h73.143v-73.143h-73.143v73.143zM438.857 740.571h73.143v-73.143h-73.143v73.143zM219.429 374.857h73.143v-73.143h-73.143v73.143zM146.286 82.286h73.143v-73.143h-73.143v73.143zM219.429 82.286h73.143v-73.143h-73.143v73.143zM219.429 228.571h73.143v-73.143h-73.143v73.143zM292.571 301.714h73.143v-73.143h-73.143v73.143zM292.571 155.429h73.143v-73.143h-73.143v73.143zM146.286 301.714h73.143v-73.143h-73.143v73.143zM585.143 813.714v-292.571l292.571 73.143v146.286z" />
<glyph unicode="&#xe93d;" glyph-name="ash-disposal-black-22" d="M46.545 354.909h46.545l93.091-372.364h139.636l93.091 372.364h46.545l-93.091-418.909h-232.727zM232.727 448c0-25.706-20.839-46.545-46.545-46.545s-46.545 20.839-46.545 46.545c0 25.706 20.839 46.545 46.545 46.545s46.545-20.839 46.545-46.545zM372.364 494.545c0-25.706-20.839-46.545-46.545-46.545s-46.545 20.839-46.545 46.545c0 25.706 20.839 46.545 46.545 46.545s46.545-20.839 46.545-46.545zM512 727.273c0-25.706-20.839-46.545-46.545-46.545s-46.545 20.839-46.545 46.545c0 25.706 20.839 46.545 46.545 46.545s46.545-20.839 46.545-46.545zM465.455 587.636c0-25.706-20.839-46.545-46.545-46.545s-46.545 20.839-46.545 46.545c0 25.706 20.839 46.545 46.545 46.545s46.545-20.839 46.545-46.545zM372.364 680.727c0-25.706-20.839-46.545-46.545-46.545s-46.545 20.839-46.545 46.545c0 25.706 20.839 46.545 46.545 46.545s46.545-20.839 46.545-46.545zM232.727 261.818c0-25.706-20.839-46.545-46.545-46.545s-46.545 20.839-46.545 46.545c0 25.706 20.839 46.545 46.545 46.545s46.545-20.839 46.545-46.545zM325.818 308.364c0-25.706-20.839-46.545-46.545-46.545s-46.545 20.839-46.545 46.545c0 25.706 20.839 46.545 46.545 46.545s46.545-20.839 46.545-46.545zM325.818 168.727c0-25.706-20.839-46.545-46.545-46.545s-46.545 20.839-46.545 46.545c0 25.706 20.839 46.545 46.545 46.545s46.545-20.839 46.545-46.545zM232.727 29.091c0-25.706-20.839-46.545-46.545-46.545s-46.545 20.839-46.545 46.545c0 25.706 20.839 46.545 46.545 46.545s46.545-20.839 46.545-46.545zM325.818 29.091c0-25.706-20.839-46.545-46.545-46.545s-46.545 20.839-46.545 46.545c0 25.706 20.839 46.545 46.545 46.545s46.545-20.839 46.545-46.545zM558.545 820.364v-279.273l325.818 46.545v186.182z" />
<glyph unicode="&#xe93e;" glyph-name="ash-disposal-black-30" d="M477.867 379.733h-68.267l-68.267-375.467h-170.667l-68.267 375.467h-68.267l88.747-443.733h266.24zM204.8 209.067h68.267v-68.267h-68.267v68.267zM273.067 140.8h68.267v-68.267h-68.267v68.267zM238.933 72.533h68.267v-68.267h-68.267v68.267zM170.667 72.533h68.267v-68.267h-68.267v68.267zM136.533 277.333h68.267v-68.267h-68.267v68.267zM273.067 277.333h68.267v-68.267h-68.267v68.267zM204.8 345.6h68.267v-68.267h-68.267v68.267zM136.533 413.867h68.267v-68.267h-68.267v68.267zM273.067 413.867h68.267v-68.267h-68.267v68.267zM307.2 652.8h68.267v-68.267h-68.267v68.267zM238.933 516.267h68.267v-68.267h-68.267v68.267zM409.6 618.667h68.267v-68.267h-68.267v68.267zM477.867 755.2h68.267v-68.267h-68.267v68.267zM580.267 823.467v-273.067l307.2 34.133v204.8z" />
<glyph unicode="&#xe93f;" glyph-name="ash-disposal-white-14" d="M0 374.857h73.143l73.143-365.714h219.429l73.143 365.714h73.143l-73.143-438.857h-365.714zM438.857 594.286h73.143v-73.143h-73.143v73.143zM292.571 594.286h73.143v-73.143h-73.143v73.143zM292.571 448h73.143v-73.143h-73.143v73.143zM146.286 448h73.143v-73.143h-73.143v73.143zM438.857 740.571h73.143v-73.143h-73.143v73.143zM219.429 374.857h73.143v-73.143h-73.143v73.143zM146.286 82.286h73.143v-73.143h-73.143v73.143zM219.429 82.286h73.143v-73.143h-73.143v73.143zM219.429 228.571h73.143v-73.143h-73.143v73.143zM292.571 301.714h73.143v-73.143h-73.143v73.143zM292.571 155.429h73.143v-73.143h-73.143v73.143zM146.286 301.714h73.143v-73.143h-73.143v73.143zM585.143 813.714v-292.571l292.571 73.143v146.286z" />
<glyph unicode="&#xe940;" glyph-name="ash-disposal-white-22" d="M46.545 354.909h46.545l93.091-372.364h139.636l93.091 372.364h46.545l-93.091-418.909h-232.727zM232.727 448c0-25.706-20.839-46.545-46.545-46.545s-46.545 20.839-46.545 46.545c0 25.706 20.839 46.545 46.545 46.545s46.545-20.839 46.545-46.545zM372.364 494.545c0-25.706-20.839-46.545-46.545-46.545s-46.545 20.839-46.545 46.545c0 25.706 20.839 46.545 46.545 46.545s46.545-20.839 46.545-46.545zM512 727.273c0-25.706-20.839-46.545-46.545-46.545s-46.545 20.839-46.545 46.545c0 25.706 20.839 46.545 46.545 46.545s46.545-20.839 46.545-46.545zM465.455 587.636c0-25.706-20.839-46.545-46.545-46.545s-46.545 20.839-46.545 46.545c0 25.706 20.839 46.545 46.545 46.545s46.545-20.839 46.545-46.545zM372.364 680.727c0-25.706-20.839-46.545-46.545-46.545s-46.545 20.839-46.545 46.545c0 25.706 20.839 46.545 46.545 46.545s46.545-20.839 46.545-46.545zM232.727 261.818c0-25.706-20.839-46.545-46.545-46.545s-46.545 20.839-46.545 46.545c0 25.706 20.839 46.545 46.545 46.545s46.545-20.839 46.545-46.545zM325.818 308.364c0-25.706-20.839-46.545-46.545-46.545s-46.545 20.839-46.545 46.545c0 25.706 20.839 46.545 46.545 46.545s46.545-20.839 46.545-46.545zM325.818 168.727c0-25.706-20.839-46.545-46.545-46.545s-46.545 20.839-46.545 46.545c0 25.706 20.839 46.545 46.545 46.545s46.545-20.839 46.545-46.545zM232.727 29.091c0-25.706-20.839-46.545-46.545-46.545s-46.545 20.839-46.545 46.545c0 25.706 20.839 46.545 46.545 46.545s46.545-20.839 46.545-46.545zM325.818 29.091c0-25.706-20.839-46.545-46.545-46.545s-46.545 20.839-46.545 46.545c0 25.706 20.839 46.545 46.545 46.545s46.545-20.839 46.545-46.545zM558.545 820.364v-279.273l325.818 46.545v186.182z" />
<glyph unicode="&#xe941;" glyph-name="ash-disposal-white-30" d="M477.867 379.733h-68.267l-68.267-375.467h-170.667l-68.267 375.467h-68.267l88.747-443.733h266.24zM204.8 209.067h68.267v-68.267h-68.267v68.267zM273.067 140.8h68.267v-68.267h-68.267v68.267zM238.933 72.533h68.267v-68.267h-68.267v68.267zM170.667 72.533h68.267v-68.267h-68.267v68.267zM136.533 277.333h68.267v-68.267h-68.267v68.267zM273.067 277.333h68.267v-68.267h-68.267v68.267zM204.8 345.6h68.267v-68.267h-68.267v68.267zM136.533 413.867h68.267v-68.267h-68.267v68.267zM273.067 413.867h68.267v-68.267h-68.267v68.267zM307.2 652.8h68.267v-68.267h-68.267v68.267zM238.933 516.267h68.267v-68.267h-68.267v68.267zM409.6 618.667h68.267v-68.267h-68.267v68.267zM477.867 755.2h68.267v-68.267h-68.267v68.267zM580.267 823.467v-273.067l307.2 34.133v204.8z" />
<glyph unicode="&#xe942;" glyph-name="assistive-listening-systems-black-14" d="M936.229 960h-65.829l-197.486-212.114c29.257-7.314 51.2-21.943 65.829-43.886 29.257-29.257 58.514-65.829 73.143-109.714l212.114 234.057v43.886c0 43.886-43.886 87.771-87.771 87.771zM270.629 323.657l-270.629-292.571v-7.314c0-43.886 43.886-87.771 87.771-87.771h102.4l234.057 248.686c-65.829 21.943-124.343 73.143-153.6 138.971zM782.629 448c0 146.286-117.029 270.629-270.629 270.629s-270.629-124.343-270.629-270.629h65.829c0 109.714 95.086 204.8 204.8 204.8s204.8-95.086 204.8-204.8c0-21.943-7.314-43.886-7.314-58.514-51.2-51.2-124.343-160.914-124.343-248.686 0-36.571-14.629-102.4-65.829-102.4-21.943 0-36.571-14.629-36.571-36.571s14.629-36.571 36.571-36.571c87.771 0 138.971 87.771 138.971 168.229 0 58.514 58.514 153.6 109.714 204.8 7.314 7.314 7.314 7.314 7.314 14.629v0c7.314 29.257 7.314 58.514 7.314 95.086z" />
<glyph unicode="&#xe943;" glyph-name="assistive-listening-systems-black-22" d="M930.909 960h-65.164l-190.836-209.455c23.273-13.964 46.545-27.927 65.164-46.545 32.582-32.582 55.855-65.164 69.818-107.055l214.109 232.727v41.891c-4.655 46.545-41.891 88.436-93.091 88.436zM269.964 322.327l-269.964-288.582v-4.655c0-51.2 41.891-88.436 88.436-88.436h102.4l232.727 251.345c-65.164 18.618-121.018 69.818-153.6 130.327zM781.964 448c0 148.945-121.018 274.618-274.618 274.618s-269.964-125.673-269.964-274.618h69.818c0 111.709 93.091 204.8 204.8 204.8s204.8-93.091 204.8-204.8c0-23.273-4.655-41.891-9.309-60.509-51.2-51.2-125.673-162.909-125.673-246.691 0-37.236-13.964-102.4-69.818-102.4-18.618 0-32.582-13.964-32.582-32.582s13.964-32.582 32.582-32.582c88.436 0 134.982 83.782 134.982 172.218 0 55.855 55.855 153.6 111.709 200.145 4.655 4.655 4.655 9.309 9.309 13.964v0c9.309 23.273 13.964 55.855 13.964 88.436z" />
<glyph unicode="&#xe944;" glyph-name="assistive-listening-systems-black-30" d="M931.84 960h-64.853l-191.147-208.213c23.893-13.653 44.373-27.307 64.853-47.787 30.72-30.72 54.613-68.267 71.68-109.227l211.627 232.107v44.373c0 47.787-40.96 88.747-92.16 88.747zM269.653 321.707l-269.653-286.72v-3.413c0-51.2 40.96-88.747 88.747-88.747h102.4l232.107 249.173c-64.853 20.48-122.88 68.267-153.6 129.707zM785.067 448c0 150.187-122.88 273.067-273.067 273.067s-273.067-122.88-273.067-273.067h68.267c0 112.64 92.16 204.8 204.8 204.8s204.8-92.16 204.8-204.8c0-20.48-3.413-40.96-10.24-61.44-51.2-54.613-126.293-163.84-126.293-245.76 0-34.133-13.653-102.4-68.267-102.4-20.48 0-34.133-13.653-34.133-34.133s13.653-34.133 34.133-34.133c88.747 0 136.533 85.333 136.533 170.667 0 54.613 58.027 153.6 109.227 201.387 3.413 3.413 6.827 6.827 6.827 13.653v0c13.653 27.307 20.48 58.027 20.48 92.16z" />
<glyph unicode="&#xe945;" glyph-name="assistive-listening-systems-t-coil-compatible-black-14" d="M936.229 960h-65.829l-197.486-212.114c29.257-7.314 51.2-21.943 65.829-43.886 29.257-29.257 58.514-65.829 73.143-109.714l212.114 234.057v43.886c0 43.886-43.886 87.771-87.771 87.771zM270.629 323.657l-270.629-292.571v-7.314c0-43.886 43.886-87.771 87.771-87.771h102.4l234.057 248.686c-65.829 21.943-124.343 73.143-153.6 138.971zM782.629 448c0 146.286-117.029 270.629-270.629 270.629s-270.629-124.343-270.629-270.629h65.829c0 109.714 95.086 204.8 204.8 204.8s204.8-95.086 204.8-204.8c0-21.943-7.314-43.886-7.314-58.514-51.2-51.2-124.343-160.914-124.343-248.686 0-36.571-14.629-102.4-65.829-102.4-21.943 0-36.571-14.629-36.571-36.571s14.629-36.571 36.571-36.571c87.771 0 138.971 87.771 138.971 168.229 0 58.514 58.514 153.6 109.714 204.8 7.314 7.314 7.314 7.314 7.314 14.629v0c7.314 29.257 7.314 58.514 7.314 95.086zM877.714 155.429h73.143v-219.429h-73.143v219.429zM804.571 228.571h219.429v-73.143h-219.429v73.143z" />
<glyph unicode="&#xe946;" glyph-name="assistive-listening-systems-t-coil-compatible-black-22" d="M930.909 960h-65.164l-190.836-209.455c23.273-13.964 46.545-27.927 65.164-46.545 32.582-32.582 55.855-65.164 69.818-107.055l214.109 232.727v41.891c-4.655 46.545-41.891 88.436-93.091 88.436zM269.964 322.327l-269.964-288.582v-4.655c0-51.2 41.891-88.436 88.436-88.436h102.4l232.727 251.345c-65.164 18.618-121.018 69.818-153.6 130.327zM781.964 448c0 148.945-121.018 274.618-274.618 274.618s-269.964-125.673-269.964-274.618h69.818c0 111.709 93.091 204.8 204.8 204.8s204.8-93.091 204.8-204.8c0-23.273-4.655-41.891-9.309-60.509-51.2-51.2-125.673-162.909-125.673-246.691 0-37.236-13.964-102.4-69.818-102.4-18.618 0-32.582-13.964-32.582-32.582s13.964-32.582 32.582-32.582c88.436 0 134.982 83.782 134.982 172.218 0 55.855 55.855 153.6 111.709 200.145 4.655 4.655 4.655 9.309 9.309 13.964v0c9.309 23.273 13.964 55.855 13.964 88.436zM837.818 168.727h46.545v-232.727h-46.545v232.727zM744.727 215.273h232.727v-46.545h-232.727v46.545z" />
<glyph unicode="&#xe947;" glyph-name="assistive-listening-systems-t-coil-compatible-black-30" d="M931.84 960h-64.853l-191.147-208.213c23.893-13.653 44.373-27.307 64.853-47.787 30.72-30.72 54.613-68.267 71.68-109.227l211.627 232.107v44.373c0 47.787-40.96 88.747-92.16 88.747zM269.653 321.707l-269.653-286.72v-3.413c0-51.2 40.96-88.747 88.747-88.747h102.4l232.107 249.173c-64.853 20.48-122.88 68.267-153.6 129.707zM785.067 448c0 150.187-122.88 273.067-273.067 273.067s-273.067-122.88-273.067-273.067h68.267c0 112.64 92.16 204.8 204.8 204.8s204.8-92.16 204.8-204.8c0-20.48-3.413-40.96-10.24-61.44-51.2-54.613-126.293-163.84-126.293-245.76 0-34.133-13.653-102.4-68.267-102.4-20.48 0-34.133-13.653-34.133-34.133s13.653-34.133 34.133-34.133c88.747 0 136.533 85.333 136.533 170.667 0 54.613 58.027 153.6 109.227 201.387 3.413 3.413 6.827 6.827 6.827 13.653v0c13.653 27.307 20.48 58.027 20.48 92.16zM819.2 174.933h68.267v-238.933h-68.267v238.933zM716.8 209.067h273.067v-68.267h-273.067v68.267z" />
<glyph unicode="&#xe948;" glyph-name="assistive-listening-systems-t-coil-compatible-white-14" d="M936.229 960h-65.829l-197.486-212.114c29.257-7.314 51.2-21.943 65.829-43.886 29.257-29.257 58.514-65.829 73.143-109.714l212.114 234.057v43.886c0 43.886-43.886 87.771-87.771 87.771zM270.629 323.657l-270.629-292.571v-7.314c0-43.886 43.886-87.771 87.771-87.771h102.4l234.057 248.686c-65.829 21.943-124.343 73.143-153.6 138.971zM782.629 448c0 146.286-117.029 270.629-270.629 270.629s-270.629-124.343-270.629-270.629h65.829c0 109.714 95.086 204.8 204.8 204.8s204.8-95.086 204.8-204.8c0-21.943-7.314-43.886-7.314-58.514-51.2-51.2-124.343-160.914-124.343-248.686 0-36.571-14.629-102.4-65.829-102.4-21.943 0-36.571-14.629-36.571-36.571s14.629-36.571 36.571-36.571c87.771 0 138.971 87.771 138.971 168.229 0 58.514 58.514 153.6 109.714 204.8 7.314 7.314 7.314 7.314 7.314 14.629v0c7.314 29.257 7.314 58.514 7.314 95.086zM877.714 155.429h73.143v-219.429h-73.143v219.429zM804.571 228.571h219.429v-73.143h-219.429v73.143z" />
<glyph unicode="&#xe949;" glyph-name="assistive-listening-systems-t-coil-compatible-white-22" d="M930.909 960h-65.164l-190.836-209.455c23.273-13.964 46.545-27.927 65.164-46.545 32.582-32.582 55.855-65.164 69.818-107.055l214.109 232.727v41.891c-4.655 46.545-41.891 88.436-93.091 88.436zM269.964 322.327l-269.964-288.582v-4.655c0-51.2 41.891-88.436 88.436-88.436h102.4l232.727 251.345c-65.164 18.618-121.018 69.818-153.6 130.327zM781.964 448c0 148.945-121.018 274.618-274.618 274.618s-269.964-125.673-269.964-274.618h69.818c0 111.709 93.091 204.8 204.8 204.8s204.8-93.091 204.8-204.8c0-23.273-4.655-41.891-9.309-60.509-51.2-51.2-125.673-162.909-125.673-246.691 0-37.236-13.964-102.4-69.818-102.4-18.618 0-32.582-13.964-32.582-32.582s13.964-32.582 32.582-32.582c88.436 0 134.982 83.782 134.982 172.218 0 55.855 55.855 153.6 111.709 200.145 4.655 4.655 4.655 9.309 9.309 13.964v0c9.309 23.273 13.964 55.855 13.964 88.436zM837.818 168.727h46.545v-232.727h-46.545v232.727zM744.727 215.273h232.727v-46.545h-232.727v46.545z" />
<glyph unicode="&#xe94a;" glyph-name="assistive-listening-systems-t-coil-compatible-white-30" d="M931.84 960h-64.853l-191.147-208.213c23.893-13.653 44.373-27.307 64.853-47.787 30.72-30.72 54.613-68.267 71.68-109.227l211.627 232.107v44.373c0 47.787-40.96 88.747-92.16 88.747zM269.653 321.707l-269.653-286.72v-3.413c0-51.2 40.96-88.747 88.747-88.747h102.4l232.107 249.173c-64.853 20.48-122.88 68.267-153.6 129.707zM785.067 448c0 150.187-122.88 273.067-273.067 273.067s-273.067-122.88-273.067-273.067h68.267c0 112.64 92.16 204.8 204.8 204.8s204.8-92.16 204.8-204.8c0-20.48-3.413-40.96-10.24-61.44-51.2-54.613-126.293-163.84-126.293-245.76 0-34.133-13.653-102.4-68.267-102.4-20.48 0-34.133-13.653-34.133-34.133s13.653-34.133 34.133-34.133c88.747 0 136.533 85.333 136.533 170.667 0 54.613 58.027 153.6 109.227 201.387 3.413 3.413 6.827 6.827 6.827 13.653v0c13.653 27.307 20.48 58.027 20.48 92.16zM819.2 174.933h68.267v-238.933h-68.267v238.933zM716.8 209.067h273.067v-68.267h-273.067v68.267z" />
<glyph unicode="&#xe94b;" glyph-name="assistive-listening-systems-white-14" d="M936.229 960h-65.829l-197.486-212.114c29.257-7.314 51.2-21.943 65.829-43.886 29.257-29.257 58.514-65.829 73.143-109.714l212.114 234.057v43.886c0 43.886-43.886 87.771-87.771 87.771zM270.629 323.657l-270.629-292.571v-7.314c0-43.886 43.886-87.771 87.771-87.771h102.4l234.057 248.686c-65.829 21.943-124.343 73.143-153.6 138.971zM782.629 448c0 146.286-117.029 270.629-270.629 270.629s-270.629-124.343-270.629-270.629h65.829c0 109.714 95.086 204.8 204.8 204.8s204.8-95.086 204.8-204.8c0-21.943-7.314-43.886-7.314-58.514-51.2-51.2-124.343-160.914-124.343-248.686 0-36.571-14.629-102.4-65.829-102.4-21.943 0-36.571-14.629-36.571-36.571s14.629-36.571 36.571-36.571c87.771 0 138.971 87.771 138.971 168.229 0 58.514 58.514 153.6 109.714 204.8 7.314 7.314 7.314 7.314 7.314 14.629v0c7.314 29.257 7.314 58.514 7.314 95.086z" />
<glyph unicode="&#xe94c;" glyph-name="assistive-listening-systems-white-22" d="M930.909 960h-65.164l-190.836-209.455c23.273-13.964 46.545-27.927 65.164-46.545 32.582-32.582 55.855-65.164 69.818-107.055l214.109 232.727v41.891c-4.655 46.545-41.891 88.436-93.091 88.436zM269.964 322.327l-269.964-288.582v-4.655c0-51.2 41.891-88.436 88.436-88.436h102.4l232.727 251.345c-65.164 18.618-121.018 69.818-153.6 130.327zM781.964 448c0 148.945-121.018 274.618-274.618 274.618s-269.964-125.673-269.964-274.618h69.818c0 111.709 93.091 204.8 204.8 204.8s204.8-93.091 204.8-204.8c0-23.273-4.655-41.891-9.309-60.509-51.2-51.2-125.673-162.909-125.673-246.691 0-37.236-13.964-102.4-69.818-102.4-18.618 0-32.582-13.964-32.582-32.582s13.964-32.582 32.582-32.582c88.436 0 134.982 83.782 134.982 172.218 0 55.855 55.855 153.6 111.709 200.145 4.655 4.655 4.655 9.309 9.309 13.964v0c9.309 23.273 13.964 55.855 13.964 88.436z" />
<glyph unicode="&#xe94d;" glyph-name="assistive-listening-systems-white-30" d="M931.84 960h-64.853l-191.147-208.213c23.893-13.653 44.373-27.307 64.853-47.787 30.72-30.72 54.613-68.267 71.68-109.227l211.627 232.107v44.373c0 47.787-40.96 88.747-92.16 88.747zM269.653 321.707l-269.653-286.72v-3.413c0-51.2 40.96-88.747 88.747-88.747h102.4l232.107 249.173c-64.853 20.48-122.88 68.267-153.6 129.707zM785.067 448c0 150.187-122.88 273.067-273.067 273.067s-273.067-122.88-273.067-273.067h68.267c0 112.64 92.16 204.8 204.8 204.8s204.8-92.16 204.8-204.8c0-20.48-3.413-40.96-10.24-61.44-51.2-54.613-126.293-163.84-126.293-245.76 0-34.133-13.653-102.4-68.267-102.4-20.48 0-34.133-13.653-34.133-34.133s13.653-34.133 34.133-34.133c88.747 0 136.533 85.333 136.533 170.667 0 54.613 58.027 153.6 109.227 201.387 3.413 3.413 6.827 6.827 6.827 13.653v0c13.653 27.307 20.48 58.027 20.48 92.16z" />
<glyph unicode="&#xe94e;" glyph-name="atm-black-14" d="M321.829 316.343c7.314-36.571 14.629-65.829 36.571-80.457 29.257-29.257 80.457-51.2 153.6-51.2 43.886 0 80.457 7.314 109.714 14.629 51.2 14.629 80.457 43.886 80.457 95.086 0 29.257-14.629 43.886-36.571 58.514-29.257 14.629-65.829 29.257-124.343 36.571l-95.086 21.943c-95.086 14.629-160.914 36.571-190.171 58.514-65.829 36.571-95.086 95.086-95.086 168.229s29.257 131.657 87.771 175.543 146.286 73.143 256 73.143c95.086 0 175.543-21.943 241.371-65.829s102.4-109.714 102.4-190.171h-175.543c0 43.886-29.257 80.457-73.143 102.4-29.257 7.314-65.829 14.629-109.714 14.629s-80.457-7.314-109.714-21.943-43.886-43.886-43.886-73.143c0-29.257 14.629-51.2 43.886-65.829 14.629-7.314 58.514-21.943 117.029-29.257l153.6-36.571c65.829-14.629 117.029-36.571 153.6-58.514 43.886-36.571 73.143-87.771 73.143-160.914s-29.257-131.657-95.086-182.857c-58.514-51.2-146.286-73.143-263.314-73.143s-204.8 21.943-270.629 73.143c-65.829 51.2-102.4 117.029-102.4 197.486h175.543zM438.857 960h146.286v-1024h-146.286v1024z" />
<glyph unicode="&#xe94f;" glyph-name="atm-black-22" d="M553.891-64h-88.436v1024h93.091zM321.164 317.673c4.655-37.236 18.618-65.164 32.582-79.127 32.582-32.582 83.782-46.545 158.255-46.545 46.545 0 79.127 4.655 107.055 13.964 51.2 18.618 79.127 46.545 79.127 93.091 0 27.927-13.964 46.545-37.236 60.509-27.927 13.964-65.164 27.927-121.018 37.236l-93.091 18.618c-93.091 18.618-158.255 37.236-190.836 60.509-60.509 37.236-88.436 93.091-88.436 172.218 0 69.818 27.927 130.327 88.436 176.873s144.291 69.818 256 69.818c93.091 0 172.218-23.273 237.382-65.164s102.4-107.055 102.4-190.836h-176.873c-4.655 46.545-27.927 79.127-69.818 102.4-27.927 13.964-65.164 18.618-107.055 18.618-46.545 0-88.436-9.309-116.364-27.927-37.236-23.273-51.2-51.2-51.2-79.127s13.964-51.2 41.891-65.164c18.618-9.309 55.855-18.618 116.364-32.582l153.6-32.582c69.818-13.964 116.364-32.582 153.6-55.855 51.2-37.236 79.127-93.091 79.127-162.909s-32.582-130.327-93.091-181.527c-60.509-46.545-148.945-69.818-260.655-69.818-116.364 0-204.8 23.273-274.618 69.818-65.164 46.545-97.745 111.709-97.745 195.491h172.218z" />
<glyph unicode="&#xe950;" glyph-name="atm-black-30" d="M477.867 960h68.267v-1024h-68.267v1024zM324.267 318.293c6.827-37.547 17.067-61.44 34.133-81.92 30.72-34.133 81.92-47.787 157.013-47.787 44.373 0 78.507 3.413 109.227 13.653 51.2 17.067 78.507 47.787 78.507 92.16 0 27.307-13.653 47.787-37.547 61.44-27.307 13.653-64.853 27.307-122.88 37.547l-98.987 17.067c-92.16 17.067-157.013 37.547-191.147 61.44-58.027 37.547-88.747 92.16-88.747 170.667 0 71.68 27.307 129.707 85.333 177.493s143.36 71.68 256 71.68c92.16 0 174.080-20.48 238.933-64.853s102.4-109.227 102.4-191.147h-177.493c-3.413 47.787-27.307 81.92-71.68 102.4-30.72 13.653-64.853 20.48-109.227 20.48-47.787 0-88.747-10.24-116.053-27.307s-40.96-47.787-40.96-78.507c0-27.307 13.653-47.787 44.373-64.853 17.067-10.24 58.027-20.48 116.053-34.133l153.6-34.133c68.267-13.653 119.467-34.133 153.6-58.027 51.2-37.547 78.507-92.16 78.507-160.427 0-71.68-30.72-133.12-92.16-180.907s-150.187-71.68-262.827-71.68c-116.053 0-204.8 23.893-273.067 71.68-64.853 47.787-98.987 112.64-98.987 194.56h174.080z" />
<glyph unicode="&#xe951;" glyph-name="atm-white-14" d="M321.829 316.343c7.314-36.571 14.629-65.829 36.571-80.457 29.257-29.257 80.457-51.2 153.6-51.2 43.886 0 80.457 7.314 109.714 14.629 51.2 14.629 80.457 43.886 80.457 95.086 0 29.257-14.629 43.886-36.571 58.514-29.257 14.629-65.829 29.257-124.343 36.571l-95.086 21.943c-95.086 14.629-160.914 36.571-190.171 58.514-65.829 36.571-95.086 95.086-95.086 168.229s29.257 131.657 87.771 175.543 146.286 73.143 256 73.143c95.086 0 175.543-21.943 241.371-65.829s102.4-109.714 102.4-190.171h-175.543c0 43.886-29.257 80.457-73.143 102.4-29.257 7.314-65.829 14.629-109.714 14.629s-80.457-7.314-109.714-21.943-43.886-43.886-43.886-73.143c0-29.257 14.629-51.2 43.886-65.829 14.629-7.314 58.514-21.943 117.029-29.257l153.6-36.571c65.829-14.629 117.029-36.571 153.6-58.514 43.886-36.571 73.143-87.771 73.143-160.914s-29.257-131.657-95.086-182.857c-58.514-51.2-146.286-73.143-263.314-73.143s-204.8 21.943-270.629 73.143c-65.829 51.2-102.4 117.029-102.4 197.486h175.543zM438.857 960h146.286v-1024h-146.286v1024z" />
<glyph unicode="&#xe952;" glyph-name="atm-white-22" d="M553.891-64h-88.436v1024h93.091zM321.164 317.673c4.655-37.236 18.618-65.164 32.582-79.127 32.582-32.582 83.782-46.545 158.255-46.545 46.545 0 79.127 4.655 107.055 13.964 51.2 18.618 79.127 46.545 79.127 93.091 0 27.927-13.964 46.545-37.236 60.509-27.927 13.964-65.164 27.927-121.018 37.236l-93.091 18.618c-93.091 18.618-158.255 37.236-190.836 60.509-60.509 37.236-88.436 93.091-88.436 172.218 0 69.818 27.927 130.327 88.436 176.873s144.291 69.818 256 69.818c93.091 0 172.218-23.273 237.382-65.164s102.4-107.055 102.4-190.836h-176.873c-4.655 46.545-27.927 79.127-69.818 102.4-27.927 13.964-65.164 18.618-107.055 18.618-46.545 0-88.436-9.309-116.364-27.927-37.236-23.273-51.2-51.2-51.2-79.127s13.964-51.2 41.891-65.164c18.618-9.309 55.855-18.618 116.364-32.582l153.6-32.582c69.818-13.964 116.364-32.582 153.6-55.855 51.2-37.236 79.127-93.091 79.127-162.909s-32.582-130.327-93.091-181.527c-60.509-46.545-148.945-69.818-260.655-69.818-116.364 0-204.8 23.273-274.618 69.818-65.164 46.545-97.745 111.709-97.745 195.491h172.218z" />
<glyph unicode="&#xe953;" glyph-name="atm-white-30" d="M477.867 960h68.267v-1024h-68.267v1024zM324.267 318.293c6.827-37.547 17.067-61.44 34.133-81.92 30.72-34.133 81.92-47.787 157.013-47.787 44.373 0 78.507 3.413 109.227 13.653 51.2 17.067 78.507 47.787 78.507 92.16 0 27.307-13.653 47.787-37.547 61.44-27.307 13.653-64.853 27.307-122.88 37.547l-98.987 17.067c-92.16 17.067-157.013 37.547-191.147 61.44-58.027 37.547-88.747 92.16-88.747 170.667 0 71.68 27.307 129.707 85.333 177.493s143.36 71.68 256 71.68c92.16 0 174.080-20.48 238.933-64.853s102.4-109.227 102.4-191.147h-177.493c-3.413 47.787-27.307 81.92-71.68 102.4-30.72 13.653-64.853 20.48-109.227 20.48-47.787 0-88.747-10.24-116.053-27.307s-40.96-47.787-40.96-78.507c0-27.307 13.653-47.787 44.373-64.853 17.067-10.24 58.027-20.48 116.053-34.133l153.6-34.133c68.267-13.653 119.467-34.133 153.6-58.027 51.2-37.547 78.507-92.16 78.507-160.427 0-71.68-30.72-133.12-92.16-180.907s-150.187-71.68-262.827-71.68c-116.053 0-204.8 23.893-273.067 71.68-64.853 47.787-98.987 112.64-98.987 194.56h174.080z" />
<glyph unicode="&#xe954;" glyph-name="audio-description-black-14" d="M863.086 155.429c-7.314-7.314-14.629 0-21.943 0h-658.286c-36.571 0-109.714 102.4-109.714 292.571s73.143 292.571 109.714 292.571h658.286c7.314 0 14.629 7.314 21.943 0h87.771c-29.257 51.2-73.143 73.143-117.029 73.143h-658.286c-95.086 0-175.543-160.914-175.543-365.714s80.457-365.714 182.857-365.714h658.286c43.886 0 80.457 21.943 117.029 73.143h-95.086zM585.143 228.571c87.771 0 102.4 124.343 102.4 219.429 0 87.771-14.629 219.429-102.4 219.429v0h-146.286v-438.857h146.286zM577.829 594.286c51.2 0 43.886-95.086 43.886-146.286 0-73.143 14.629-109.714-43.886-146.286h-65.829v292.571h65.829zM314.514 667.429l-234.057-438.857h80.457l36.571 73.143h102.4v-73.143h65.829v438.857h-51.2zM307.2 374.857h-87.771l87.771 138.971v-138.971zM731.429 667.429h73.143c0 0 73.143-146.286 73.143-219.429s-73.143-219.429-73.143-219.429h-73.143c0 0 73.143 146.286 73.143 219.429s-73.143 219.429-73.143 219.429zM877.714 667.429h73.143c0 0 73.143-146.286 73.143-219.429s-73.143-219.429-73.143-219.429h-73.143c0 0 73.143 146.286 73.143 219.429s-73.143 219.429-73.143 219.429z" />
<glyph unicode="&#xe955;" glyph-name="audio-description-black-22" d="M837.818 773.818c65.164 0 139.636-139.636 139.636-325.818s-74.473-325.818-139.636-325.818h-651.636c-65.164 0-139.636 139.636-139.636 325.818s74.473 325.818 139.636 325.818h651.636zM837.818 820.364h-651.636c-102.4 0-186.182-162.909-186.182-372.364s83.782-372.364 186.182-372.364h651.636c102.4 0 186.182 162.909 186.182 372.364s-83.782 372.364-186.182 372.364v0zM586.473 280.436c93.091 0 111.709 74.473 111.709 162.909 0 93.091-18.618 167.564-111.709 167.564v0h-121.018v-330.473h121.018zM577.164 536.436c46.545 0 41.891-37.236 41.891-88.436 0-46.545 9.309-88.436-41.891-88.436h-41.891v176.873h41.891zM316.509 610.909l-237.382-330.473h107.055l27.927 41.891h134.982v-41.891h69.818v330.473h-102.4zM344.436 396.8h-88.436l88.436 116.364v-116.364zM898.327 615.564h-37.236c46.545-46.545 74.473-107.055 74.473-172.218 0-55.855-18.618-111.709-55.855-158.255h32.582c32.582 46.545 51.2 97.745 51.2 158.255s-23.273 121.018-65.164 172.218zM814.545 615.564h-37.236c46.545-46.545 74.473-107.055 74.473-172.218 0-55.855-18.618-111.709-55.855-158.255h37.236c32.582 46.545 51.2 97.745 51.2 158.255-4.655 60.509-27.927 121.018-69.818 172.218zM735.418 615.564h-37.236c46.545-46.545 69.818-107.055 69.818-172.218 0-55.855-18.618-111.709-55.855-158.255h32.582c32.582 46.545 51.2 97.745 51.2 158.255s-23.273 121.018-60.509 172.218z" />
<glyph unicode="&#xe956;" glyph-name="audio-description-black-30" d="M839.68 789.333c71.68 0 150.187-139.947 150.187-341.333s-78.507-341.333-150.187-341.333h-655.36c-71.68 0-150.187 139.947-150.187 341.333s78.507 341.333 150.187 341.333h655.36zM839.68 823.467h-655.36c-102.4 0-184.32-167.253-184.32-375.467s81.92-375.467 184.32-375.467h655.36c102.4 0 184.32 167.253 184.32 375.467s-81.92 375.467-184.32 375.467v0zM542.72 284.16c92.16 0 163.84 75.093 163.84 163.84 0 92.16-75.093 163.84-163.84 163.84v0h-102.4v-331.093l102.4 3.413zM532.48 536.747c47.787 0 88.747-40.96 88.747-88.747s-37.547-88.747-88.747-88.747h-23.893v177.493c0 0 23.893 0 23.893 0zM314.027 611.84l-235.52-331.093h105.813l27.307 44.373h119.467v-44.373h71.68v331.093h-88.747zM334.507 393.387h-78.507l75.093 119.467v-119.467h3.413zM901.12 611.84h-40.96c44.373-44.373 71.68-109.227 71.68-174.080 0-58.027-20.48-112.64-58.027-157.013h37.547c34.133 44.373 51.2 98.987 51.2 157.013 0 64.853-20.48 126.293-61.44 174.080zM815.787 611.84h-40.96c44.373-44.373 71.68-109.227 71.68-174.080 0-58.027-20.48-112.64-58.027-157.013h40.96c34.133 44.373 51.2 98.987 51.2 157.013 0 64.853-23.893 126.293-64.853 174.080zM733.867 611.84h-40.96c44.373-44.373 71.68-109.227 71.68-174.080 0-58.027-20.48-112.64-58.027-157.013h37.547c34.133 44.373 51.2 98.987 51.2 157.013 3.413 64.853-20.48 126.293-61.44 174.080z" />
<glyph unicode="&#xe957;" glyph-name="audio-description-white-14" d="M863.086 155.429c-7.314-7.314-14.629 0-21.943 0h-658.286c-36.571 0-109.714 102.4-109.714 292.571s73.143 292.571 109.714 292.571h658.286c7.314 0 14.629 7.314 21.943 0h87.771c-29.257 51.2-73.143 73.143-117.029 73.143h-658.286c-95.086 0-175.543-160.914-175.543-365.714s80.457-365.714 182.857-365.714h658.286c43.886 0 80.457 21.943 117.029 73.143h-95.086zM585.143 228.571c87.771 0 102.4 124.343 102.4 219.429 0 87.771-14.629 219.429-102.4 219.429v0h-146.286v-438.857h146.286zM577.829 594.286c51.2 0 43.886-95.086 43.886-146.286 0-73.143 14.629-109.714-43.886-146.286h-65.829v292.571h65.829zM314.514 667.429l-234.057-438.857h80.457l36.571 73.143h102.4v-73.143h65.829v438.857h-51.2zM307.2 374.857h-87.771l87.771 138.971v-138.971zM731.429 667.429h73.143c0 0 73.143-146.286 73.143-219.429s-73.143-219.429-73.143-219.429h-73.143c0 0 73.143 146.286 73.143 219.429s-73.143 219.429-73.143 219.429zM877.714 667.429h73.143c0 0 73.143-146.286 73.143-219.429s-73.143-219.429-73.143-219.429h-73.143c0 0 73.143 146.286 73.143 219.429s-73.143 219.429-73.143 219.429z" />
<glyph unicode="&#xe958;" glyph-name="audio-description-white-22" d="M837.818 773.818c65.164 0 139.636-139.636 139.636-325.818s-74.473-325.818-139.636-325.818h-651.636c-65.164 0-139.636 139.636-139.636 325.818s74.473 325.818 139.636 325.818h651.636zM837.818 820.364h-651.636c-102.4 0-186.182-162.909-186.182-372.364s83.782-372.364 186.182-372.364h651.636c102.4 0 186.182 162.909 186.182 372.364s-83.782 372.364-186.182 372.364v0zM586.473 280.436c93.091 0 111.709 74.473 111.709 162.909 0 93.091-18.618 167.564-111.709 167.564v0h-121.018v-330.473h121.018zM577.164 536.436c46.545 0 41.891-37.236 41.891-88.436 0-46.545 9.309-88.436-41.891-88.436h-41.891v176.873h41.891zM316.509 610.909l-237.382-330.473h107.055l27.927 41.891h134.982v-41.891h69.818v330.473h-102.4zM344.436 396.8h-88.436l88.436 116.364v-116.364zM898.327 615.564h-37.236c46.545-46.545 74.473-107.055 74.473-172.218 0-55.855-18.618-111.709-55.855-158.255h32.582c32.582 46.545 51.2 97.745 51.2 158.255s-23.273 121.018-65.164 172.218zM814.545 615.564h-37.236c46.545-46.545 74.473-107.055 74.473-172.218 0-55.855-18.618-111.709-55.855-158.255h37.236c32.582 46.545 51.2 97.745 51.2 158.255-4.655 60.509-27.927 121.018-69.818 172.218zM735.418 615.564h-37.236c46.545-46.545 69.818-107.055 69.818-172.218 0-55.855-18.618-111.709-55.855-158.255h32.582c32.582 46.545 51.2 97.745 51.2 158.255s-23.273 121.018-60.509 172.218z" />
<glyph unicode="&#xe959;" glyph-name="audio-description-white-30" d="M839.68 789.333c71.68 0 150.187-139.947 150.187-341.333s-78.507-341.333-150.187-341.333h-655.36c-71.68 0-150.187 139.947-150.187 341.333s78.507 341.333 150.187 341.333h655.36zM839.68 823.467h-655.36c-102.4 0-184.32-167.253-184.32-375.467s81.92-375.467 184.32-375.467h655.36c102.4 0 184.32 167.253 184.32 375.467s-81.92 375.467-184.32 375.467v0zM542.72 284.16c92.16 0 163.84 75.093 163.84 163.84 0 92.16-75.093 163.84-163.84 163.84v0h-102.4v-331.093l102.4 3.413zM532.48 536.747c47.787 0 88.747-40.96 88.747-88.747s-37.547-88.747-88.747-88.747h-23.893v177.493c0 0 23.893 0 23.893 0zM314.027 611.84l-235.52-331.093h105.813l27.307 44.373h119.467v-44.373h71.68v331.093h-88.747zM334.507 393.387h-78.507l75.093 119.467v-119.467h3.413zM901.12 611.84h-40.96c44.373-44.373 71.68-109.227 71.68-174.080 0-58.027-20.48-112.64-58.027-157.013h37.547c34.133 44.373 51.2 98.987 51.2 157.013 0 64.853-20.48 126.293-61.44 174.080zM815.787 611.84h-40.96c44.373-44.373 71.68-109.227 71.68-174.080 0-58.027-20.48-112.64-58.027-157.013h40.96c34.133 44.373 51.2 98.987 51.2 157.013 0 64.853-23.893 126.293-64.853 174.080zM733.867 611.84h-40.96c44.373-44.373 71.68-109.227 71.68-174.080 0-58.027-20.48-112.64-58.027-157.013h37.547c34.133 44.373 51.2 98.987 51.2 157.013 3.413 64.853-20.48 126.293-61.44 174.080z" />
<glyph unicode="&#xe95a;" glyph-name="audio-tour-black-14" d="M1024 146.578h-101.888v244.663c0 217.161-184.027 393.874-410.185 393.874-225.938 0-409.819-176.713-409.819-393.874l-0.219-50.907c-0.146-71.241-0.146-193.682-0.146-193.682h-101.742c0 131.072 0 203.995 4.462 244.59h-4.169c0 273.335 229.522 495.616 511.634 495.616 282.331 0 512.073-222.281 512.073-495.616v-244.663zM283.648-42.35h-133.705v383.634h133.705c69.12-178.030 0-383.634 0-383.634zM737.865 341.285h133.705v-383.634h-133.705c-69.12 178.030 0 383.634 0 383.634z" />
<glyph unicode="&#xe95b;" glyph-name="audio-tour-black-22" d="M1024 173.196h-101.888v244.596c0 217.181-183.994 393.868-410.159 393.868-225.978 0-409.833-176.687-409.833-393.868l-0.186-50.874c-0.14-71.215-0.14-193.722-0.14-193.722h-101.795c0 131.072 0 204.009 4.422 244.596h-4.096c0 273.361 229.469 495.663 511.628 495.663 282.298 0 512.047-222.301 512.047-495.663v-244.596zM283.648-15.732h-133.679v383.628h133.725c69.073-177.99-0.047-383.628-0.047-383.628zM737.885 367.895h133.725v-383.628h-133.725c-69.12 177.99 0 383.628 0 383.628z" />
<glyph unicode="&#xe95c;" glyph-name="audio-tour-black-30" d="M1024 185.617h-101.888v244.599c0 217.156-184.013 393.865-410.146 393.865-225.963 0-409.839-176.708-409.839-393.865l-0.205-50.893c-0.137-71.202-0.137-193.707-0.137-193.707h-101.786c0 131.106 0 204.015 4.437 244.599h-4.096c0 273.34 229.478 495.65 511.59 495.65 282.317 0 512.068-222.31 512.068-495.65v-244.599zM283.682-3.345h-133.734v383.659h133.7c69.12-178.005 0.034-383.659 0.034-383.659zM737.86 380.314h133.7v-383.659h-133.7c-69.12 178.039 0 383.659 0 383.659z" />
<glyph unicode="&#xe95d;" glyph-name="audio-tour-white-14" d="M1024 146.578h-101.888v244.663c0 217.161-184.027 393.874-410.185 393.874-225.938 0-409.819-176.713-409.819-393.874l-0.219-50.907c-0.146-71.241-0.146-193.682-0.146-193.682h-101.742c0 131.072 0 203.995 4.462 244.59h-4.169c0 273.335 229.522 495.616 511.634 495.616 282.331 0 512.073-222.281 512.073-495.616v-244.663zM283.648-42.35h-133.705v383.634h133.705c69.12-178.030 0-383.634 0-383.634zM737.865 341.285h133.705v-383.634h-133.705c-69.12 178.030 0 383.634 0 383.634z" />
<glyph unicode="&#xe95e;" glyph-name="audio-tour-white-22" d="M1024 173.196h-101.888v244.596c0 217.181-183.994 393.868-410.159 393.868-225.978 0-409.833-176.687-409.833-393.868l-0.186-50.874c-0.14-71.215-0.14-193.722-0.14-193.722h-101.795c0 131.072 0 204.009 4.422 244.596h-4.096c0 273.361 229.469 495.663 511.628 495.663 282.298 0 512.047-222.301 512.047-495.663v-244.596zM283.648-15.732h-133.679v383.628h133.725c69.073-177.99-0.047-383.628-0.047-383.628zM737.885 367.895h133.725v-383.628h-133.725c-69.12 177.99 0 383.628 0 383.628z" />
<glyph unicode="&#xe95f;" glyph-name="audio-tour-white-30" d="M1024 185.617h-101.888v244.599c0 217.156-184.013 393.865-410.146 393.865-225.963 0-409.839-176.708-409.839-393.865l-0.205-50.893c-0.137-71.202-0.137-193.707-0.137-193.707h-101.786c0 131.106 0 204.015 4.437 244.599h-4.096c0 273.34 229.478 495.65 511.59 495.65 282.317 0 512.068-222.31 512.068-495.65v-244.599zM283.682-3.345h-133.734v383.659h133.7c69.12-178.005 0.034-383.659 0.034-383.659zM737.86 380.314h133.7v-383.659h-133.7c-69.12 178.039 0 383.659 0 383.659z" />
<glyph unicode="&#xe960;" glyph-name="automated-entrance-black-14" d="M1024 448l-219.429 219.429v-146.286h-219.429v-146.286h219.429v-146.286zM292.571 960v-146.286h292.571v-219.429c36.571 0 87.771 0 146.286 0v365.714h-438.857zM585.143 82.286h-292.571v-146.286h438.857v365.714c-58.514 0-109.714 0-146.286 0v-219.429zM292.571 448v146.286h73.143v146.286h-73.143v-73.143h-73.143v-73.143h-73.143v-73.143h-73.143v-73.143h-73.143v-73.143h219.429v-146.286h-73.143v-146.286h73.143v73.143h73.143v73.143h73.143v73.143h73.143v73.143h73.143v73.143z" />
<glyph unicode="&#xe961;" glyph-name="automated-entrance-black-22" d="M65.164 112.873l446.836 381.673h-204.8l139.636 279.273-446.836-372.364h204.8zM698.182 960h-372.364v-139.636h232.727v-186.182h139.636zM558.545 261.818v-186.182h-232.727v-139.636h372.364v325.818zM558.545 541.091v-186.182h186.182v-186.182l279.273 279.273-279.273 279.273v-186.182z" />
<glyph unicode="&#xe962;" glyph-name="automated-entrance-black-30" d="M1010.347 448l-259.413 259.413v-191.147h-204.8v-136.533h204.8v-191.147zM64.853 96.427l447.147 385.707h-204.8l136.533 273.067-443.733-375.467h204.8zM716.8 960h-409.6v-136.533h273.067v-204.8h136.533zM580.267 277.333v-204.8h-273.067v-136.533h409.6v341.333z" />
<glyph unicode="&#xe963;" glyph-name="automated-entrance-white-14" d="M1024 448l-219.429 219.429v-146.286h-219.429v-146.286h219.429v-146.286zM292.571 960v-146.286h292.571v-219.429c36.571 0 87.771 0 146.286 0v365.714h-438.857zM585.143 82.286h-292.571v-146.286h438.857v365.714c-58.514 0-109.714 0-146.286 0v-219.429zM292.571 448v146.286h73.143v146.286h-73.143v-73.143h-73.143v-73.143h-73.143v-73.143h-73.143v-73.143h-73.143v-73.143h219.429v-146.286h-73.143v-146.286h73.143v73.143h73.143v73.143h73.143v73.143h73.143v73.143h73.143v73.143z" />
<glyph unicode="&#xe964;" glyph-name="automated-entrance-white-22" d="M65.164 112.873l446.836 381.673h-204.8l139.636 279.273-446.836-372.364h204.8zM698.182 960h-372.364v-139.636h232.727v-186.182h139.636zM558.545 261.818v-186.182h-232.727v-139.636h372.364v325.818zM558.545 541.091v-186.182h186.182v-186.182l279.273 279.273-279.273 279.273v-186.182z" />
<glyph unicode="&#xe965;" glyph-name="automated-entrance-white-30" d="M1010.347 448l-259.413 259.413v-191.147h-204.8v-136.533h204.8v-191.147zM64.853 96.427l447.147 385.707h-204.8l136.533 273.067-443.733-375.467h204.8zM716.8 960h-409.6v-136.533h273.067v-204.8h136.533zM580.267 277.333v-204.8h-273.067v-136.533h409.6v341.333z" />
<glyph unicode="&#xe966;" glyph-name="automobiles-black-14" d="M1024 462.629v0c0 58.514-36.571 109.714-95.086 124.343l-95.086 226.743c-7.314 21.943-43.886 73.143-80.457 73.143h-482.743c-36.571 0-73.143-51.2-80.457-80.457l-95.086-226.743c-58.514-14.629-95.086-58.514-95.086-117.029v0-234.057h73.143v-146.286c0-43.886 29.257-73.143 73.143-73.143s73.143 29.257 73.143 73.143v146.286h585.143v-146.286c0-43.886 29.257-73.143 73.143-73.143s73.143 29.257 73.143 73.143v146.286h73.143v234.057zM928.914 411.429c0-43.886-36.571-80.457-80.457-80.457s-80.457 36.571-80.457 80.457c0 43.886 36.571 80.457 80.457 80.457s80.457-36.571 80.457-80.457zM256 777.143c0 14.629 7.314 36.571 21.943 36.571h468.114c14.629 0 21.943-21.943 21.943-36.571l80.457-182.857h-672.914l80.457 182.857zM182.857 491.886c43.886 0 80.457-36.571 80.457-80.457s-36.571-80.457-80.457-80.457c-43.886 0-80.457 36.571-80.457 80.457s36.571 80.457 80.457 80.457z" />
<glyph unicode="&#xe967;" glyph-name="automobiles-black-22" d="M1024 461.964v0c0 55.855-37.236 107.055-93.091 121.018l-93.091 223.418c-13.964 32.582-46.545 55.855-83.782 55.855h-484.073c-37.236 0-69.818-23.273-83.782-55.855l-93.091-223.418c-51.2-13.964-93.091-60.509-93.091-121.018v0-246.691h93.091v-93.091c0 0 0-13.964 0-23.273 0-37.236 32.582-69.818 69.818-69.818s69.818 32.582 69.818 69.818c0 9.309 0 23.273 0 23.273v93.091h558.545v-93.091c0 0 0-13.964 0-23.273 0-37.236 32.582-69.818 69.818-69.818s69.818 32.582 69.818 69.818c0 9.309 0 23.273 0 23.273v93.091h93.091v246.691zM162.909 354.909c-37.236 0-69.818 32.582-69.818 69.818s32.582 69.818 69.818 69.818 69.818-32.582 69.818-69.818-32.582-69.818-69.818-69.818zM172.218 587.636l79.127 195.491c4.655 4.655 13.964 13.964 27.927 13.964h465.455c9.309 0 18.618-9.309 23.273-18.618l83.782-190.836h-679.564zM861.091 354.909c-37.236 0-69.818 32.582-69.818 69.818s32.582 69.818 69.818 69.818 69.818-32.582 69.818-69.818-32.582-69.818-69.818-69.818z" />
<glyph unicode="&#xe968;" glyph-name="automobiles-black-30" d="M1024 461.653v0c0 58.027-37.547 105.813-92.16 119.467l-95.573 218.453c-13.653 34.133-47.787 54.613-85.333 54.613h-481.28c-37.547 0-71.68-23.893-85.333-54.613l-95.573-218.453c-51.2-13.653-88.747-61.44-88.747-119.467v0-252.587h68.267v-68.267c0 0 0-10.24 0-17.067 0-47.787 37.547-85.333 85.333-85.333s85.333 37.547 85.333 85.333c0 6.827 0 17.067 0 17.067v68.267h546.133v-68.267c0 0 0-10.24 0-17.067 0-47.787 37.547-85.333 85.333-85.333s85.333 37.547 85.333 85.333c0 6.827 0 17.067 0 17.067v68.267h68.267v252.587zM921.6 413.867c0-37.547-30.72-68.267-68.267-68.267s-68.267 30.72-68.267 68.267c0 37.547 30.72 68.267 68.267 68.267s68.267-30.72 68.267-68.267zM252.587 772.267c3.413 10.24 13.653 17.067 23.893 17.067h467.627c10.24 0 20.48-6.827 23.893-17.067l81.92-187.733h-675.84l78.507 187.733zM170.667 482.133c37.547 0 68.267-30.72 68.267-68.267s-30.72-68.267-68.267-68.267-68.267 30.72-68.267 68.267c0 37.547 30.72 68.267 68.267 68.267z" />
<glyph unicode="&#xe969;" glyph-name="automobiles-white-14" d="M1024 462.629v0c0 58.514-36.571 109.714-95.086 124.343l-95.086 226.743c-7.314 21.943-43.886 73.143-80.457 73.143h-482.743c-36.571 0-73.143-51.2-80.457-80.457l-95.086-226.743c-58.514-14.629-95.086-58.514-95.086-117.029v0-234.057h73.143v-146.286c0-43.886 29.257-73.143 73.143-73.143s73.143 29.257 73.143 73.143v146.286h585.143v-146.286c0-43.886 29.257-73.143 73.143-73.143s73.143 29.257 73.143 73.143v146.286h73.143v234.057zM928.914 411.429c0-43.886-36.571-80.457-80.457-80.457s-80.457 36.571-80.457 80.457c0 43.886 36.571 80.457 80.457 80.457s80.457-36.571 80.457-80.457zM256 777.143c0 14.629 7.314 36.571 21.943 36.571h468.114c14.629 0 21.943-21.943 21.943-36.571l80.457-182.857h-672.914l80.457 182.857zM182.857 491.886c43.886 0 80.457-36.571 80.457-80.457s-36.571-80.457-80.457-80.457c-43.886 0-80.457 36.571-80.457 80.457s36.571 80.457 80.457 80.457z" />
<glyph unicode="&#xe96a;" glyph-name="automobiles-white-22" d="M1024 461.964v0c0 55.855-37.236 107.055-93.091 121.018l-93.091 223.418c-13.964 32.582-46.545 55.855-83.782 55.855h-484.073c-37.236 0-69.818-23.273-83.782-55.855l-93.091-223.418c-51.2-13.964-93.091-60.509-93.091-121.018v0-246.691h93.091v-93.091c0 0 0-13.964 0-23.273 0-37.236 32.582-69.818 69.818-69.818s69.818 32.582 69.818 69.818c0 9.309 0 23.273 0 23.273v93.091h558.545v-93.091c0 0 0-13.964 0-23.273 0-37.236 32.582-69.818 69.818-69.818s69.818 32.582 69.818 69.818c0 9.309 0 23.273 0 23.273v93.091h93.091v246.691zM162.909 354.909c-37.236 0-69.818 32.582-69.818 69.818s32.582 69.818 69.818 69.818 69.818-32.582 69.818-69.818-32.582-69.818-69.818-69.818zM172.218 587.636l79.127 195.491c4.655 4.655 13.964 13.964 27.927 13.964h465.455c9.309 0 18.618-9.309 23.273-18.618l83.782-190.836h-679.564zM861.091 354.909c-37.236 0-69.818 32.582-69.818 69.818s32.582 69.818 69.818 69.818 69.818-32.582 69.818-69.818-32.582-69.818-69.818-69.818z" />
<glyph unicode="&#xe96b;" glyph-name="automobiles-white-30" d="M1024 461.653v0c0 58.027-37.547 105.813-92.16 119.467l-95.573 218.453c-13.653 34.133-47.787 54.613-85.333 54.613h-481.28c-37.547 0-71.68-23.893-85.333-54.613l-95.573-218.453c-51.2-13.653-88.747-61.44-88.747-119.467v0-252.587h68.267v-68.267c0 0 0-10.24 0-17.067 0-47.787 37.547-85.333 85.333-85.333s85.333 37.547 85.333 85.333c0 6.827 0 17.067 0 17.067v68.267h546.133v-68.267c0 0 0-10.24 0-17.067 0-47.787 37.547-85.333 85.333-85.333s85.333 37.547 85.333 85.333c0 6.827 0 17.067 0 17.067v68.267h68.267v252.587zM921.6 413.867c0-37.547-30.72-68.267-68.267-68.267s-68.267 30.72-68.267 68.267c0 37.547 30.72 68.267 68.267 68.267s68.267-30.72 68.267-68.267zM252.587 772.267c3.413 10.24 13.653 17.067 23.893 17.067h467.627c10.24 0 20.48-6.827 23.893-17.067l81.92-187.733h-675.84l78.507 187.733zM170.667 482.133c37.547 0 68.267-30.72 68.267-68.267s-30.72-68.267-68.267-68.267-68.267 30.72-68.267 68.267c0 37.547 30.72 68.267 68.267 68.267z" />
<glyph unicode="&#xe96c;" glyph-name="baby-changing-station-black-14" d="M658.286 813.714c0-80.791-65.494-146.286-146.286-146.286s-146.286 65.494-146.286 146.286c0 80.791 65.494 146.286 146.286 146.286s146.286-65.494 146.286-146.286zM365.714 374.857v102.4l-29.257-29.257h-43.886v-36.571l-51.2-51.2c-51.2-51.2-124.343 14.629-73.143 65.829l197.486 197.486c14.629 14.629 36.571 21.943 58.514 21.943h175.543c29.257 0 43.886-7.314 65.829-21.943l197.486-197.486c51.2-51.2-21.943-117.029-73.143-65.829l-58.514 51.2v36.571h-36.571l-36.571 36.571v-109.714h-292.571zM665.6 309.029l-117.029-117.029 87.771-87.771-87.771-87.771c-51.2-51.2 21.943-124.343 73.143-73.143l138.971 138.971c29.257 29.257 36.571 87.771 7.314 117.029-7.314 14.629-102.4 109.714-102.4 109.714zM358.4 309.029l117.029-117.029-87.771-87.771 87.771-87.771c51.2-51.2-21.943-124.343-73.143-73.143l-138.971 138.971c-29.257 29.257-36.571 87.771-7.314 117.029l102.4 109.714z" />
<glyph unicode="&#xe96d;" glyph-name="baby-changing-station-black-22" d="M656.291 815.709c0-79.69-64.601-144.291-144.291-144.291s-144.291 64.601-144.291 144.291c0 79.69 64.601 144.291 144.291 144.291s144.291-64.601 144.291-144.291zM512 368.873h-153.6v111.709l-116.364-116.364c-51.2-51.2-125.673 13.964-69.818 69.818l195.491 195.491c13.964 13.964 32.582 23.273 60.509 23.273h172.218c27.927 0 46.545-9.309 60.509-23.273l195.491-195.491c51.2-51.2-23.273-121.018-69.818-69.818l-121.018 121.018v-111.709h-153.6v-4.655zM665.6 313.018l-116.364-116.364 83.782-83.782-88.436-88.436c-51.2-51.2 18.618-125.673 69.818-69.818l134.982 144.291c27.927 27.927 37.236 83.782 4.655 116.364 9.309 0-88.436 97.745-88.436 97.745zM358.4 313.018l116.364-116.364-83.782-83.782 88.436-88.436c51.2-51.2-18.618-125.673-74.473-69.818l-134.982 144.291c-27.927 27.927-37.236 83.782-4.655 116.364l93.091 97.745z" />
<glyph unicode="&#xe96e;" glyph-name="baby-changing-station-black-30" d="M655.36 816.64c0-79.176-64.184-143.36-143.36-143.36s-143.36 64.184-143.36 143.36c0 79.176 64.184 143.36 143.36 143.36s143.36-64.184 143.36-143.36zM512 369.493h-153.6v109.227l-116.053-116.053c-51.2-51.2-126.293 13.653-71.68 68.267l194.56 194.56c17.067 17.067 34.133 23.893 61.44 23.893h170.667c27.307 0 44.373-10.24 61.44-23.893l194.56-194.56c51.2-51.2-23.893-119.467-71.68-68.267l-119.467 119.467v-109.227h-150.187v-3.413zM662.187 311.467l-116.053-116.053 85.333-85.333-85.333-85.333c-51.2-51.2 20.48-122.88 71.68-71.68l136.533 143.36c30.72 30.72 37.547 85.333 6.827 116.053 0 0-98.987 98.987-98.987 98.987zM358.4 311.467l116.053-116.053-85.333-85.333 85.333-85.333c51.2-51.2-20.48-122.88-71.68-71.68l-136.533 143.36c-30.72 30.72-37.547 85.333-6.827 116.053l98.987 98.987z" />
<glyph unicode="&#xe96f;" glyph-name="baby-changing-station-white-14" d="M658.286 813.714c0-80.791-65.494-146.286-146.286-146.286s-146.286 65.494-146.286 146.286c0 80.791 65.494 146.286 146.286 146.286s146.286-65.494 146.286-146.286zM365.714 374.857v102.4l-29.257-29.257h-43.886v-36.571l-51.2-51.2c-51.2-51.2-124.343 14.629-73.143 65.829l197.486 197.486c14.629 14.629 36.571 21.943 58.514 21.943h175.543c29.257 0 43.886-7.314 65.829-21.943l197.486-197.486c51.2-51.2-21.943-117.029-73.143-65.829l-58.514 51.2v36.571h-36.571l-36.571 36.571v-109.714h-292.571zM665.6 309.029l-117.029-117.029 87.771-87.771-87.771-87.771c-51.2-51.2 21.943-124.343 73.143-73.143l138.971 138.971c29.257 29.257 36.571 87.771 7.314 117.029-7.314 14.629-102.4 109.714-102.4 109.714zM358.4 309.029l117.029-117.029-87.771-87.771 87.771-87.771c51.2-51.2-21.943-124.343-73.143-73.143l-138.971 138.971c-29.257 29.257-36.571 87.771-7.314 117.029l102.4 109.714z" />
<glyph unicode="&#xe970;" glyph-name="baby-changing-station-white-22" d="M656.291 815.709c0-79.69-64.601-144.291-144.291-144.291s-144.291 64.601-144.291 144.291c0 79.69 64.601 144.291 144.291 144.291s144.291-64.601 144.291-144.291zM512 368.873h-153.6v111.709l-116.364-116.364c-51.2-51.2-125.673 13.964-69.818 69.818l195.491 195.491c13.964 13.964 32.582 23.273 60.509 23.273h172.218c27.927 0 46.545-9.309 60.509-23.273l195.491-195.491c51.2-51.2-23.273-121.018-69.818-69.818l-121.018 121.018v-111.709h-153.6v-4.655zM665.6 313.018l-116.364-116.364 83.782-83.782-88.436-88.436c-51.2-51.2 18.618-125.673 69.818-69.818l134.982 144.291c27.927 27.927 37.236 83.782 4.655 116.364 9.309 0-88.436 97.745-88.436 97.745zM358.4 313.018l116.364-116.364-83.782-83.782 88.436-88.436c51.2-51.2-18.618-125.673-74.473-69.818l-134.982 144.291c-27.927 27.927-37.236 83.782-4.655 116.364l93.091 97.745z" />
<glyph unicode="&#xe971;" glyph-name="baby-changing-station-white-30" d="M655.36 816.64c0-79.176-64.184-143.36-143.36-143.36s-143.36 64.184-143.36 143.36c0 79.176 64.184 143.36 143.36 143.36s143.36-64.184 143.36-143.36zM512 369.493h-153.6v109.227l-116.053-116.053c-51.2-51.2-126.293 13.653-71.68 68.267l194.56 194.56c17.067 17.067 34.133 23.893 61.44 23.893h170.667c27.307 0 44.373-10.24 61.44-23.893l194.56-194.56c51.2-51.2-23.893-119.467-71.68-68.267l-119.467 119.467v-109.227h-150.187v-3.413zM662.187 311.467l-116.053-116.053 85.333-85.333-85.333-85.333c-51.2-51.2 20.48-122.88 71.68-71.68l136.533 143.36c30.72 30.72 37.547 85.333 6.827 116.053 0 0-98.987 98.987-98.987 98.987zM358.4 311.467l116.053-116.053-85.333-85.333 85.333-85.333c51.2-51.2-20.48-122.88-71.68-71.68l-136.533 143.36c-30.72 30.72-37.547 85.333-6.827 116.053l98.987 98.987z" />
<glyph unicode="&#xe972;" glyph-name="backcountry-camping-permit-black-14" d="M373.029-5.486l138.971 248.686 138.971-248.686h-277.943zM768-5.486l-256 453.486-256-453.486h-51.2v-51.2h621.714v51.2h-58.514zM146.286 886.857h731.429v-73.143h-731.429v73.143zM146.286 740.571h731.429v-73.143h-731.429v73.143zM146.286 594.286h512v-73.143h-512v73.143z" />
<glyph unicode="&#xe973;" glyph-name="backcountry-camping-permit-black-22" d="M363.055-3.491l148.945 274.618 148.945-274.618h-297.891zM795.927-3.491l-279.273 498.036-283.927-498.036h-60.509v-55.855h679.564v55.855h-55.855zM139.636 773.818h744.727v-93.091h-744.727v93.091zM139.636 634.182h558.545v-93.091h-558.545v93.091zM139.636 913.455h744.727v-93.091h-744.727v93.091z" />
<glyph unicode="&#xe974;" glyph-name="backcountry-camping-permit-black-30" d="M358.4-2.56l157.013 283.307 157.013-283.307h-314.027zM812.373-2.56l-293.547 518.827-293.547-518.827h-64.853v-58.027h706.56v58.027h-54.613zM136.533 755.2h750.933v-68.267h-750.933v68.267zM136.533 618.667h546.133v-68.267h-546.133v68.267zM136.533 891.733h750.933v-68.267h-750.933v68.267z" />
</font>
</defs>
</svg>
